<svg viewBox="0 0 24 24" xmlns="http://www.w3.org/2000/svg" fill="currentColor" width="100%" height="100%">
  <path fill-rule="evenodd" clip-rule="evenodd" d="M12 23C18.0751 23 23 18.0751 23 12C23 5.92487 18.0751 1 12 1C5.92487 1 1 5.92487 1 12C1 18.0751 5.92487 23 12 23ZM12 24C18.6274 24 24 18.6274 24 12C24 5.37258 18.6274 0 12 0C5.37258 0 0 5.37258 0 12C0 18.6274 5.37258 24 12 24Z"/>
  <path d="M17.5909 12.2389C17.9163 12.5643 17.9163 13.0919 17.5909 13.4174L12.5909 18.4174C12.4346 18.5737 12.2226 18.6615 12.0016 18.6615C11.7806 18.6615 11.5687 18.5737 11.4124 18.4174L6.41237 13.4174C6.08694 13.0919 6.08694 12.5643 6.41237 12.2389C6.73781 11.9134 7.26545 11.9134 7.59088 12.2389L11.1683 15.8163L11.1683 6.16146C11.1683 5.70122 11.5414 5.32812 12.0016 5.32812C12.4619 5.32812 12.835 5.70122 12.835 6.16146L12.835 15.8163L16.4124 12.2389C16.7378 11.9134 17.2654 11.9134 17.5909 12.2389Z"/>
</svg>
