<svg viewBox="0 0 16 16" xmlns="http://www.w3.org/2000/svg" fill="currentColor" width="100%" height="100%">
  <path d="M2.76107 2.66668L4.00576 10.7571C4.01482 10.8239 4.03376 10.8875 4.06108 10.9465C4.14329 11.124 4.30131 11.2593 4.49359 11.3107C4.55233 11.3265 4.6139 11.3344 4.67686 11.3333H11.9997C12.2941 11.3333 12.5536 11.1402 12.6382 10.8582L14.6382 4.19158C14.6988 3.98973 14.6603 3.77113 14.5345 3.60206C14.4087 3.43298 14.2104 3.33334 13.9997 3.33334H4.21266L3.9934 1.90814C3.98518 1.84855 3.96909 1.79147 3.94621 1.738C3.90468 1.64061 3.84109 1.55626 3.76254 1.49014C3.68966 1.42868 3.60341 1.38256 3.50879 1.35676C3.44923 1.34045 3.38674 1.33228 3.3228 1.33334H1.99967C1.63148 1.33334 1.33301 1.63182 1.33301 2.00001C1.33301 2.3682 1.63148 2.66668 1.99967 2.66668H2.76107ZM5.2383 10L4.41779 4.66668H13.1037L11.5037 10H5.2383Z"/>
  <path d="M6.66634 13.3333C6.66634 14.0697 6.06939 14.6667 5.33301 14.6667C4.59663 14.6667 3.99967 14.0697 3.99967 13.3333C3.99967 12.597 4.59663 12 5.33301 12C6.06939 12 6.66634 12.597 6.66634 13.3333Z"/>
  <path d="M12.6663 13.3333C12.6663 14.0697 12.0694 14.6667 11.333 14.6667C10.5966 14.6667 9.99967 14.0697 9.99967 13.3333C9.99967 12.597 10.5966 12 11.333 12C12.0694 12 12.6663 12.597 12.6663 13.3333Z"/>
</svg>
