<svg viewBox="0 0 16 16" xmlns="http://www.w3.org/2000/svg" fill="currentColor" width="100%" height="100%">
  <path d="M9.52892 1.52864C9.78927 1.26829 10.2114 1.26829 10.4717 1.52864L13.1384 4.1953C13.3987 4.45565 13.3987 4.87776 13.1384 5.13811L10.4717 7.80478C10.2114 8.06513 9.78927 8.06513 9.52892 7.80478C9.26857 7.54443 9.26857 7.12232 9.52892 6.86197L11.0575 5.33337L3.33366 5.33337C2.96547 5.33337 2.66699 5.0349 2.66699 4.66671C2.66699 4.29852 2.96547 4.00004 3.33366 4.00004L11.0575 4.00004L9.52892 2.47145C9.26857 2.2111 9.26857 1.78899 9.52892 1.52864ZM6.47173 8.1953C6.73208 8.45565 6.73208 8.87776 6.47173 9.13811L4.94313 10.6667H12.667C13.0352 10.6667 13.3337 10.9652 13.3337 11.3334C13.3337 11.7016 13.0352 12 12.667 12H4.94313L6.47173 13.5286C6.73208 13.789 6.73208 14.2111 6.47173 14.4714C6.21138 14.7318 5.78927 14.7318 5.52892 14.4714L2.86225 11.8048C2.73723 11.6798 2.66699 11.5102 2.66699 11.3334C2.66699 11.1566 2.73723 10.987 2.86225 10.862L5.52892 8.1953C5.78927 7.93495 6.21138 7.93495 6.47173 8.1953Z"/>
</svg>
