<svg viewBox="0 0 24 24" xmlns="http://www.w3.org/2000/svg" fill="currentColor" width="100%" height="100%">
  <path d="M12.0039 3.99805C7.58563 3.99805 4.00391 7.57977 4.00391 11.998C4.00391 16.4163 7.58563 19.998 12.0039 19.998C16.4222 19.998 20.0039 16.4163 20.0039 11.998C20.0039 7.57977 16.4222 3.99805 12.0039 3.99805ZM2.00391 11.998C2.00391 6.4752 6.48106 1.99805 12.0039 1.99805C17.5268 1.99805 22.0039 6.4752 22.0039 11.998C22.0039 17.5209 17.5268 21.998 12.0039 21.998C6.48106 21.998 2.00391 17.5209 2.00391 11.998ZM12.0039 5.99805C12.5562 5.99805 13.0039 6.44576 13.0039 6.99805V11.5838L15.711 14.2909C16.1015 14.6815 16.1015 15.3146 15.711 15.7052C15.3205 16.0957 14.6873 16.0957 14.2968 15.7052L11.2968 12.7052C11.1093 12.5176 11.0039 12.2633 11.0039 11.998V6.99805C11.0039 6.44576 11.4516 5.99805 12.0039 5.99805Z"/>
</svg>
