<svg viewBox="0 0 26 26" xmlns="http://www.w3.org/2000/svg" fill="currentColor" width="100%" height="100%">
  <path fill-rule="evenodd" clip-rule="evenodd" d="M4.5 1C4.5 0.723858 4.72386 0.5 5 0.5H21C21.1117 0.5 21.2202 0.537404 21.3082 0.606247L25.3082 3.73668C25.4292 3.83145 25.5 3.97667 25.5 4.13043V25C25.5 25.2761 25.2761 25.5 25 25.5H1C0.723858 25.5 0.5 25.2761 0.5 25V9.34783C0.5 9.07168 0.723858 8.84783 1 8.84783H4.5V1ZM4.5 9.84783H1.5V13.0217H4.5V9.84783ZM5.5 13.0217H6.5V9.84783H5.5V13.0217ZM5.5 8.84783H6.5V3.6087C6.5 3.33255 6.72386 3.1087 7 3.1087H19C19.2761 3.1087 19.5 3.33255 19.5 3.6087V8.84783H20.5V1.5H5.5V8.84783ZM21.5 2.02622L24.5 4.37405V24.5H17.5V14.0217H21C21.2761 14.0217 21.5 13.7979 21.5 13.5217V2.02622ZM20.5 13.0217V9.84783H19.5V13.0217H20.5ZM18.5 13.0217V9.84783H17.5V13.0217H18.5ZM16.5 13.0217V9.84783H7.5V13.0217H16.5ZM7.5 8.84783H18.5V4.1087H7.5V8.84783ZM16.5 14.0217H1.5V24.5H2.5V16.1304C2.5 15.8543 2.72386 15.6304 3 15.6304H15C15.2761 15.6304 15.5 15.8543 15.5 16.1304V24.5H16.5V14.0217ZM14.5 24.5V16.6304H12V24.5H14.5ZM11 24.5V16.6304H3.5V24.5H11ZM18.5 16.1304C18.5 15.8543 18.7239 15.6304 19 15.6304H23C23.2761 15.6304 23.5 15.8543 23.5 16.1304V20.8261C23.5 21.1022 23.2761 21.3261 23 21.3261H19C18.7239 21.3261 18.5 21.1022 18.5 20.8261V16.1304ZM19.5 16.6304V20.3261H22.5V16.6304H19.5Z"/>
</svg>
