<svg viewBox="0 0 24 26" xmlns="http://www.w3.org/2000/svg" fill="currentColor" width="100%" height="100%">
  <path fill-rule="evenodd" clip-rule="evenodd" d="M3.5 1C3.5 0.723858 3.72386 0.5 4 0.5H20C20.2761 0.5 20.5 0.723858 20.5 1V24.5H24V25.5H0V24.5H3.5V1ZM4.5 24.5H5.5V3.20711L4.5 2.20711V24.5ZM5.20711 1.5H18.7929L17.7929 2.5H6.20711L5.20711 1.5ZM6.5 3.5V24.5H17.5V3.5H6.5ZM18.5 3.20711V24.5H19.5V2.20711L18.5 3.20711ZM13.5 14C13.5 13.1716 14.1716 12.5 15 12.5C15.8284 12.5 16.5 13.1716 16.5 14C16.5 14.8284 15.8284 15.5 15 15.5C14.1716 15.5 13.5 14.8284 13.5 14ZM15 13.5C14.7239 13.5 14.5 13.7239 14.5 14C14.5 14.2761 14.7239 14.5 15 14.5C15.2761 14.5 15.5 14.2761 15.5 14C15.5 13.7239 15.2761 13.5 15 13.5Z"/>
</svg>
