<svg viewBox="0 0 26 26" xmlns="http://www.w3.org/2000/svg" fill="currentColor" width="100%" height="100%">
  <path fill-rule="evenodd" clip-rule="evenodd" d="M0.704748 8.8824C-0.359714 4.62455 2.86065 0.5 7.24954 0.5C11.6384 0.5 14.8588 4.62456 13.7943 8.88241L11.7496 17.0614L11.7495 23C11.7495 23 11.7495 23 11.7495 23C11.7495 24.3807 10.6302 25.5 9.24954 25.5H5.24954C3.86882 25.5 2.74954 24.3807 2.74954 23V17.0616L0.704748 8.8824ZM3.74954 17.5V19.3975L10.75 18.0851L10.7498 17.5H3.74954ZM10.8591 16.5L12.8242 8.63987C13.7309 5.01317 10.9879 1.5 7.24954 1.5C3.51122 1.5 0.768215 5.01317 1.67489 8.63987L3.63992 16.5H4.74954L4.74954 12.5C4.74954 11.1193 5.86882 10 7.24954 10C8.63025 10 9.74954 11.1193 9.74954 12.5V16.5H10.8591ZM8.74954 16.5V12.5C8.74954 11.6716 8.07796 11 7.24954 11C6.42111 11 5.74954 11.6716 5.74954 12.5L5.74954 16.5H8.74954ZM10.7502 19.1025L3.74954 20.415V22.3975L10.7498 21.0851L10.7502 19.1025ZM10.7497 22.1026L3.80474 23.4046C3.98133 24.0365 4.56131 24.5 5.24954 24.5H9.24954C10.078 24.5 10.7495 23.8284 10.7495 23L10.7497 22.1026ZM24.0002 1.5C22.0672 1.5 20.5002 3.067 20.5002 5V9.52746C22.7502 9.77619 24.5002 11.6837 24.5002 14V16.5854C25.0828 16.7913 25.5002 17.3469 25.5002 18C25.5002 18.6531 25.0828 19.2087 24.5002 19.4146V24C24.5002 24.8284 23.8287 25.5 23.0002 25.5C22.1718 25.5 21.5002 24.8284 21.5002 24V19.5H18.5002V24C18.5002 24.8284 17.8287 25.5 17.0002 25.5C16.1718 25.5 15.5002 24.8284 15.5002 24V19.4146C14.9177 19.2087 14.5002 18.6531 14.5002 18C14.5002 17.3469 14.9177 16.7913 15.5002 16.5854V14C15.5002 11.6837 17.2503 9.77619 19.5002 9.52746V5C19.5002 2.51472 21.515 0.5 24.0002 0.5H25.0002V1.5H24.0002ZM16.5002 16.5H23.5002V14C23.5002 12.067 21.9332 10.5 20.0002 10.5C18.0672 10.5 16.5002 12.067 16.5002 14V16.5ZM16.5002 19.5V24C16.5002 24.2761 16.7241 24.5 17.0002 24.5C17.2764 24.5 17.5002 24.2761 17.5002 24V19.5H16.5002ZM24.0002 18.5C24.2764 18.5 24.5002 18.2761 24.5002 18C24.5002 17.7239 24.2764 17.5 24.0002 17.5H16.0002C15.7241 17.5 15.5002 17.7239 15.5002 18C15.5002 18.2761 15.7241 18.5 16.0002 18.5H24.0002ZM23.5002 19.5H22.5002V24C22.5002 24.2761 22.7241 24.5 23.0002 24.5C23.2764 24.5 23.5002 24.2761 23.5002 24V19.5Z"/>
</svg>
