<svg viewBox="0 0 21 16" xmlns="http://www.w3.org/2000/svg" fill="currentColor" width="100%" height="100%">
  <path fill-rule="evenodd" clip-rule="evenodd" d="M20.3445 5.03704C20.3445 5.9563 20.0961 6.81852 19.6657 7.55778C20.4916 8.44741 21 9.64593 21 10.963V11.037C21 13.7733 18.8106 16 16.1202 16H13.7655H13.7167H0V12L7.86599 4H0V0H13.7167H13.7655H15.4647C18.1551 0 20.3445 2.22667 20.3445 4.96296V5.03704ZM10.1747 3.93258C10.1747 2.78111 11.0883 1.84766 12.2153 1.84766C12.738 1.84766 13.2147 2.0484 13.5757 2.37855C13.9368 2.0484 14.4135 1.84766 14.9362 1.84766C16.0632 1.84766 16.9768 2.78111 16.9768 3.93258C16.9768 4.17627 16.9359 4.41019 16.8607 4.62756H17.657C18.4084 4.62756 19.0175 5.24986 19.0175 6.01751C19.0175 6.78516 18.4084 7.40746 17.657 7.40746H14.256V6.71249C14.256 6.32866 13.9514 6.01751 13.5757 6.01751C13.2001 6.01751 12.8955 6.32866 12.8955 6.71249V7.40746H9.49446C8.74312 7.40746 8.13403 6.78516 8.13403 6.01751C8.13403 5.24986 8.74312 4.62756 9.49446 4.62756H10.2908C10.2156 4.41019 10.1747 4.17627 10.1747 3.93258ZM12.8955 4.62756V3.93258C12.8955 3.54876 12.591 3.23761 12.2153 3.23761C11.8396 3.23761 11.5351 3.54876 11.5351 3.93258C11.5351 4.31641 11.8396 4.62756 12.2153 4.62756H12.8955ZM14.9362 4.62756C15.3118 4.62756 15.6164 4.31641 15.6164 3.93258C15.6164 3.54876 15.3118 3.23761 14.9362 3.23761C14.5605 3.23761 14.256 3.54876 14.256 3.93258V4.62756H14.9362ZM12.9161 8.77636H8.83486V12.2512C8.83486 13.0189 9.44394 13.6412 10.1953 13.6412H12.9161V8.77636ZM16.9974 13.6412H14.2766V8.77636H18.3579V12.2512C18.3579 13.0189 17.7488 13.6412 16.9974 13.6412Z"/>
</svg>
