<svg viewBox="0 0 19 18" xmlns="http://www.w3.org/2000/svg" fill="currentColor" width="100%" height="100%">
  <path d="M17.8255 16.3313C17.5482 16.7766 17.0409 16.9334 16.6169 17.1474C16.1406 17.3893 15.6196 17.4052 15.1036 17.4451C14.8885 17.4624 14.5602 17.4464 14.3737 17.4704C13.3205 17.6073 12.2412 17.78 11.2055 17.9063C9.11029 18.1615 6.12607 17.8584 4.32185 17.4424C2.51764 17.0264 1.59005 16.8258 0.74203 15.4409C-0.105986 14.0559 -0.236547 15.0833 0.398844 13.2053C1.03424 11.3273 3.20526 8.43129 4.5494 7.00385C5.89355 5.57642 7.3956 4.27525 8.49728 3.15484C9.59896 2.03442 10.815 1.44564 11.7538 0.838253C12.6926 0.230863 13.0184 0.104601 13.8254 0.00890685C14.6323 -0.0867869 14.3663 0.613638 14.8922 0.910023C14.8835 0.923313 14.8761 0.928631 14.8686 0.92996C14.886 0.948567 14.9134 0.985781 14.9544 1.05356C15.162 1.39381 15.5239 1.99322 15.4518 2.50492C15.3796 3.01661 15.1521 3.3037 14.7007 3.47249C14.5615 4.15696 14.462 4.38158 13.7421 4.36297C13.0221 4.34437 12.47 4.27392 11.6792 4.09583C10.8884 3.91773 10.7379 3.91906 10.0056 4.91454C9.27318 5.91002 7.95887 7.85978 7.48886 9.25399C7.01884 10.6495 6.64209 11.8643 5.80651 13.0233C6.14472 12.7641 6.37475 12.5687 6.70799 12.2577C6.97781 12.0065 7.29316 11.8152 7.52429 11.6416C7.63513 11.5418 7.92814 11.3648 7.92814 11.3648C8.08773 11.2667 8.15505 11.2436 8.28465 11.1772C9.63128 10.4874 10.6584 10.5618 11.949 11.3406C12.3233 10.9113 12.4713 10.4076 13.0047 10.1152C15.2379 8.89115 16.786 8.8845 18.3054 11.1413C19.5899 13.0525 18.8936 14.6142 17.8255 16.3313Z"/>
</svg>
