<svg viewBox="0 0 48 48" xmlns="http://www.w3.org/2000/svg" fill="currentColor" width="100%" height="100%">
  <path d="M24.0078 8C15.1713 8 8.00781 15.1634 8.00781 24C8.00781 32.8366 15.1713 40 24.0078 40C32.8444 40 40.0078 32.8366 40.0078 24C40.0078 15.1634 32.8444 8 24.0078 8ZM4.00781 24C4.00781 12.9543 12.9621 4 24.0078 4C35.0535 4 44.0078 12.9543 44.0078 24C44.0078 35.0457 35.0535 44 24.0078 44C12.9621 44 4.00781 35.0457 4.00781 24Z"/>
  <path d="M24.0078 28C22.9032 28 22.0078 27.1046 22.0078 26L22.0078 14C22.0078 12.8954 22.9032 12 24.0078 12C25.1124 12 26.0078 12.8954 26.0078 14L26.0078 26C26.0078 27.1046 25.1124 28 24.0078 28Z"/>
  <path d="M21.0078 33C21.0078 31.3431 22.351 30 24.0078 30C25.6647 30 27.0078 31.3431 27.0078 33C27.0078 34.6569 25.6647 36 24.0078 36C22.351 36 21.0078 34.6569 21.0078 33Z"/>
</svg>
