<svg viewBox="0 0 26 26" xmlns="http://www.w3.org/2000/svg" fill="currentColor" width="100%" height="100%">
  <path fill-rule="evenodd" clip-rule="evenodd" d="M4.58511 1C4.58511 0.723858 4.80896 0.5 5.08511 0.5H8.14894C8.42508 0.5 8.64894 0.723858 8.64894 1V1.52128H9.69149V1C9.69149 0.723858 9.91535 0.5 10.1915 0.5H24C24.8284 0.5 25.5 1.17157 25.5 2V2.62834C25.5 3.02616 25.342 3.4077 25.0607 3.689L23.5362 5.2135L24.7474 8.54444C25.2453 9.91363 25.5 11.3593 25.5 12.8162V13.2619C25.5 15.0109 25.133 16.7404 24.4226 18.3387L23.7268 19.9043H24C24.8284 19.9043 25.5 20.5758 25.5 21.4043V24C25.5 24.8284 24.8284 25.5 24 25.5H11.7021C10.8737 25.5 10.2021 24.8284 10.2021 24V21.4043C10.2021 20.5758 10.8737 19.9043 11.7021 19.9043H18.5781L19.9965 17.3512C20.5246 16.4006 20.8352 15.3469 20.9086 14.266H19.383C19.1746 14.266 18.988 14.1367 18.9148 13.9415L17.5046 10.1809H12.7447C12.6121 10.1809 12.4849 10.1282 12.3911 10.0344L9.98438 7.62766H8.64894V8.14894C8.64894 8.42508 8.42508 8.64894 8.14894 8.64894H5.08511C4.80896 8.64894 4.58511 8.42508 4.58511 8.14894V6.45288L0.824438 5.04263C0.629286 4.96945 0.5 4.78289 0.5 4.57447C0.5 4.36605 0.629286 4.17949 0.824438 4.1063L4.58511 2.69605V1ZM5.58511 7.64894H7.64894V1.5H5.58511V7.64894ZM4.58511 5.38488V3.76405L2.424 4.57447L4.58511 5.38488ZM8.64894 6.62766H9.69149V2.52128H8.64894V6.62766ZM10.6915 6.92055L12.9518 9.18085H20.9149C21.1043 9.18085 21.2774 9.28785 21.3621 9.45724L21.8727 10.4785C21.9075 10.5479 21.9255 10.6245 21.9255 10.7021V13.766C21.9255 15.1905 21.5625 16.5916 20.8707 17.8368L19.3094 20.6471C19.2212 20.8058 19.0539 20.9043 18.8723 20.9043H11.7021C11.426 20.9043 11.2021 21.1281 11.2021 21.4043V22.2021H24.5V21.4043C24.5 21.1281 24.2761 20.9043 24 20.9043H22.9574C22.7882 20.9043 22.6304 20.8186 22.5382 20.6767C22.446 20.5348 22.4318 20.3559 22.5005 20.2012L23.5088 17.9325C24.1623 16.4622 24.5 14.871 24.5 13.2619V12.8162C24.5 11.4759 24.2657 10.1458 23.8076 8.88618L22.4876 5.25598C22.4212 5.07341 22.4665 4.86892 22.6039 4.73155L24.3536 2.98189C24.4473 2.88812 24.5 2.76095 24.5 2.62834V2C24.5 1.72386 24.2761 1.5 24 1.5H10.6915V6.92055ZM24.5 23.2021H11.2021V24C11.2021 24.2761 11.426 24.5 11.7021 24.5H24C24.2761 24.5 24.5 24.2761 24.5 24V23.2021ZM18.5726 10.1809L19.7295 13.266H20.9255V10.8202L20.6059 10.1809H18.5726ZM13.266 4.06383C13.266 3.78769 13.4898 3.56383 13.766 3.56383H20.4043C20.6804 3.56383 20.9043 3.78769 20.9043 4.06383C20.9043 4.33997 20.6804 4.56383 20.4043 4.56383H13.766C13.4898 4.56383 13.266 4.33997 13.266 4.06383ZM13.266 6.61702C13.266 6.34088 13.4898 6.11702 13.766 6.11702H20.4043C20.6804 6.11702 20.9043 6.34088 20.9043 6.61702C20.9043 6.89316 20.6804 7.11702 20.4043 7.11702H13.766C13.4898 7.11702 13.266 6.89316 13.266 6.61702Z"/>
</svg>
