<svg viewBox="0 0 26 26" xmlns="http://www.w3.org/2000/svg" fill="currentColor" width="100%" height="100%">
  <path fill-rule="evenodd" clip-rule="evenodd" d="M0.5 0.5H11.25V14.25H0.5V0.5ZM1.5 1.5V13.25H10.25V1.5H1.5ZM16.25 0.5H21V5.32461L24.5403 9.75H12.7097L16.25 5.32461V0.5ZM17.25 1.5V5.67539L14.7903 8.75H22.4597L20 5.67539V1.5H17.25ZM8.75 8.5V5.5H9.75V8.5H8.75ZM0.5 14.75H11.25V25.5H0.5V14.75ZM1.5 15.75V24.5H10.25V15.75H1.5ZM11.75 14.75H25.5V25.5H11.75V14.75ZM12.75 15.75V24.5H24.5V15.75H12.75ZM22.75 18H14.5V17H22.75V18ZM8.75 21.25V19H9.75V21.25H8.75Z"/>
</svg>
