<svg viewBox="0 0 26 26" xmlns="http://www.w3.org/2000/svg" fill="currentColor" width="100%" height="100%">
  <path fill-rule="evenodd" clip-rule="evenodd" d="M7.54819 5C7.54819 2.51149 9.57847 0.5 12.0757 0.5H14.0895C16.5867 0.5 18.617 2.51149 18.617 5V7.69004L18.8121 7.78692C19.3084 8.03334 19.6239 8.53841 19.6239 9.09313C19.6239 10.4522 18.9833 11.7318 17.8947 12.5515L17.5552 12.8072L17.3522 13.3991C17.1595 13.9612 16.8611 14.4691 16.4819 14.9019L16.8896 15.0908L18.1474 15.4542C19.4989 15.8447 20.7684 16.4746 21.8948 17.3135C22.1938 17.5363 22.4527 17.808 22.6603 18.1172L23.2473 18.9919C24.0476 20.184 24.6356 21.5041 24.9856 22.8945L25.4849 24.8779C25.5225 25.0274 25.4891 25.1858 25.3944 25.3074C25.2996 25.4289 25.1541 25.5 25 25.5H1C0.845895 25.5 0.700396 25.4289 0.605653 25.3074C0.51091 25.1858 0.477511 25.0274 0.51513 24.8779L1.01442 22.8945C1.36439 21.5041 1.9524 20.184 2.75266 18.9919L3.33975 18.1172C3.54732 17.808 3.80621 17.5363 4.10525 17.3135C5.23157 16.4746 6.50109 15.8447 7.8526 15.4542L9.11044 15.0908L9.63617 14.8472C9.2794 14.4265 8.99764 13.9376 8.81298 13.3991L8.61001 12.8072L8.27047 12.5515C7.18189 11.7318 6.5413 10.4522 6.5413 9.09313C6.5413 8.53841 6.85685 8.03334 7.35309 7.78692L7.54819 7.69004V5ZM8.54819 7.19345L8.81087 7.06301C9.53729 6.70228 10.3138 6.4515 11.1148 6.31892C11.7662 6.21109 12.4244 6.15718 13.0826 6.15718C13.7408 6.15718 14.399 6.21109 15.0504 6.31892C15.8514 6.4515 16.6279 6.70228 17.3543 7.06301L17.617 7.19345V5C17.617 3.07023 16.0409 1.5 14.0895 1.5H12.0757C10.1243 1.5 8.54819 3.07023 8.54819 5V7.19345ZM10.4289 15.582L9.78595 15.8799V19.5H16.2141V15.8799L15.6712 15.6284C15.1252 16.0101 14.492 16.2735 13.8105 16.3863L13.3298 16.4659C13.1661 16.493 12.9991 16.493 12.8354 16.4659L12.3547 16.3863C11.6458 16.269 10.9894 15.9887 10.4289 15.582ZM17.2141 16.2254V19.5727C17.9285 19.7861 18.4518 20.445 18.4518 21.2293V24.5H24.3585L24.0158 23.1386C23.694 21.8601 23.1533 20.6459 22.4171 19.5492L21.83 18.6746C21.6858 18.4597 21.5057 18.2706 21.2974 18.1155C20.2675 17.3483 19.1063 16.7722 17.8698 16.4149L17.2141 16.2254ZM17.4518 24.5V21.2293C17.4518 20.8297 17.1248 20.5 16.7141 20.5H9.28595C8.87526 20.5 8.54819 20.8297 8.54819 21.2293V24.5H17.4518ZM7.54819 24.5V21.2293C7.54819 20.445 8.07153 19.7861 8.78595 19.5727V16.2254L8.13018 16.4149C6.8937 16.7722 5.73254 17.3483 4.70262 18.1155C4.49431 18.2707 4.31425 18.4597 4.17004 18.6746L3.58295 19.5492C2.84675 20.6459 2.30598 21.8601 1.98417 23.1386L1.64146 24.5H7.54819ZM13.0826 7.15718C12.479 7.15718 11.8755 7.20662 11.2781 7.3055C10.5748 7.42191 9.89315 7.64208 9.25563 7.95866L7.79785 8.68257C7.63934 8.76128 7.5413 8.92084 7.5413 9.09313C7.5413 10.1365 8.03303 11.1209 8.87202 11.7527L9.45649 12.1928L9.75892 13.0748C9.96833 13.6855 10.3386 14.2145 10.8175 14.6173C11.2943 15.0183 11.8784 15.2939 12.518 15.3997L12.9987 15.4793C13.0543 15.4885 13.1109 15.4885 13.1665 15.4793L13.6472 15.3997C14.9295 15.1875 15.9885 14.2933 16.4063 13.0748L16.7087 12.1928L17.2932 11.7527C18.1322 11.1209 18.6239 10.1365 18.6239 9.09313C18.6239 8.92083 18.5259 8.76128 18.3674 8.68257L16.9096 7.95866C16.2721 7.64208 15.5904 7.42191 14.8871 7.3055C14.2897 7.20662 13.6862 7.15718 13.0826 7.15718Z"/>
</svg>
