<svg viewBox="0 0 19 24" xmlns="http://www.w3.org/2000/svg" fill="currentColor" width="100%" height="100%">
  <path fill-rule="evenodd" clip-rule="evenodd" d="M4.32154 1.58317e-06L4.32254 0L14.6785 7.91587e-07C14.9873 0.000470203 15.2757 0.112232 15.5018 0.299816C15.726 0.48583 15.8774 0.735399 15.9494 1.00288L18.9508 12.1333C19.0032 12.3279 19.0138 12.5321 18.9824 12.7305C18.951 12.9289 18.8777 13.1216 18.7634 13.2926C18.649 13.4638 18.4944 13.6115 18.3063 13.7169C18.1174 13.8226 17.9026 13.8811 17.6799 13.8814L5.59229 13.8814V15.7945C5.59229 16.135 5.3058 16.4111 4.95239 16.4111C4.59898 16.4111 4.31249 16.135 4.31249 15.7945V13.8814L1.3201 13.8814C1.09743 13.8811 0.882595 13.8226 0.693723 13.7169C0.505581 13.6115 0.35105 13.4638 0.23664 13.2926C0.12235 13.1216 0.0490463 12.9289 0.0176502 12.7305C-0.0137485 12.5321 -0.0032475 12.3283 0.0490947 12.1337L3.05053 1.00325C3.12255 0.735779 3.27399 0.485832 3.49823 0.299816C3.72436 0.112231 4.0127 0.000470203 4.32154 1.58317e-06ZM4.28929 1.31301L1.28796 12.4431C1.2794 12.4749 1.27737 12.5102 1.28282 12.5446C1.28826 12.579 1.30015 12.6062 1.31262 12.6249C1.32128 12.6378 1.32893 12.6449 1.33328 12.6482H17.6668C17.6711 12.6449 17.6788 12.6378 17.6874 12.6249C17.6999 12.6062 17.7118 12.579 17.7172 12.5446C17.7227 12.5102 17.7206 12.4749 17.7121 12.4431L14.7107 1.31301C14.6987 1.26808 14.6776 1.24332 14.6668 1.2344L14.6653 1.2332H4.3347L4.3332 1.2344C4.32245 1.24332 4.30138 1.26808 4.28929 1.31301ZM9.50002 15.1779C9.85342 15.1779 10.1399 15.4539 10.1399 15.7945V22.7668H14.0476C14.401 22.7668 14.6875 23.0429 14.6875 23.3834C14.6875 23.7239 14.401 24 14.0476 24H4.95239C4.59898 24 4.31249 23.7239 4.31249 23.3834C4.31249 23.0429 4.59898 22.7668 4.95239 22.7668H8.86012V15.7945C8.86012 15.4539 9.14661 15.1779 9.50002 15.1779Z"/>
</svg>
