<svg viewBox="0 0 16 16" xmlns="http://www.w3.org/2000/svg" fill="currentColor" width="100%" height="100%">
  <path d="M8.00033 1.33337C5.06699 1.33337 2.66699 3.73337 2.66699 6.66671C2.66699 10.2667 7.33366 14.3334 7.53366 14.5334C7.66699 14.6 7.86699 14.6667 8.00033 14.6667C8.13366 14.6667 8.33366 14.6 8.46699 14.5334C8.66699 14.3334 13.3337 10.2667 13.3337 6.66671C13.3337 3.73337 10.9337 1.33337 8.00033 1.33337ZM8.00033 13.1334C6.60033 11.8 4.00033 8.93337 4.00033 6.66671C4.00033 4.46671 5.80033 2.66671 8.00033 2.66671C10.2003 2.66671 12.0003 4.46671 12.0003 6.66671C12.0003 8.86671 9.40033 11.8 8.00033 13.1334ZM8.00033 4.00004C6.53366 4.00004 5.33366 5.20004 5.33366 6.66671C5.33366 8.13337 6.53366 9.33337 8.00033 9.33337C9.46699 9.33337 10.667 8.13337 10.667 6.66671C10.667 5.20004 9.46699 4.00004 8.00033 4.00004ZM8.00033 8.00004C7.26699 8.00004 6.66699 7.40004 6.66699 6.66671C6.66699 5.93337 7.26699 5.33337 8.00033 5.33337C8.73366 5.33337 9.33366 5.93337 9.33366 6.66671C9.33366 7.40004 8.73366 8.00004 8.00033 8.00004Z"/>
</svg>
