<svg viewBox="0 0 24 24" xmlns="http://www.w3.org/2000/svg" fill="currentColor" width="100%" height="100%">
  <path d="M3.82831 3.99805H8.31825L9.76546 7.61608L7.44058 9.166C7.16238 9.35146 6.99528 9.66369 6.99528 9.99805C6.99782 10.0917 6.99528 9.99905 6.99528 9.99905L6.99528 10.0001L6.99529 10.0023L6.99532 10.0074L6.99547 10.0197C6.99562 10.0289 6.99587 10.0401 6.99629 10.0532C6.99714 10.0795 6.99867 10.1133 7.0014 10.1544C7.00688 10.2365 7.01719 10.3475 7.03658 10.4832C7.07534 10.7545 7.15056 11.1262 7.2966 11.5643C7.58983 12.444 8.16601 13.583 9.28818 14.7052C10.4103 15.8273 11.5493 16.4035 12.4291 16.6967C12.8672 16.8428 13.2388 16.918 13.5101 16.9567C13.6458 16.9761 13.7568 16.9865 13.8389 16.9919C13.88 16.9947 13.9139 16.9962 13.9401 16.997C13.9532 16.9975 13.9644 16.9977 13.9736 16.9979L13.9859 16.998L13.991 16.998L13.9932 16.998L13.9943 16.998C13.9943 16.998 14.1059 16.9919 13.9953 16.998C14.3741 16.998 14.7203 16.784 14.8897 16.4453L15.5594 15.1059L19.9953 15.8452V20.165C17.8842 20.4703 12.1827 20.7712 7.70239 16.2909C3.22209 11.8106 3.523 6.10914 3.82831 3.99805ZM9.06893 10.4841L10.8749 9.28018C11.6618 8.75556 11.9737 7.75142 11.6224 6.8733L10.1752 3.25527C9.87148 2.49595 9.13606 1.99805 8.31825 1.99805H3.77606C2.86755 1.99805 2.01237 2.62921 1.86322 3.61495C1.52391 5.85755 1.06207 12.479 6.28818 17.7052C11.5143 22.9313 18.1358 22.4694 20.3784 22.1301C21.3641 21.981 21.9953 21.1258 21.9953 20.2173V15.8452C21.9953 14.8675 21.2885 14.0331 20.3241 13.8724L15.8882 13.1331C15.0221 12.9887 14.1632 13.4261 13.7706 14.2114L13.4241 14.9044C13.3152 14.8777 13.1936 14.8434 13.0615 14.7994C12.4412 14.5926 11.5802 14.1688 10.7024 13.2909C9.82455 12.4131 9.40073 11.5521 9.19397 10.9318C9.13809 10.7642 9.09787 10.6135 9.06893 10.4841Z"/>
</svg>
