<svg viewBox="0 0 26 26" xmlns="http://www.w3.org/2000/svg" fill="currentColor" width="100%" height="100%">
  <path fill-rule="evenodd" clip-rule="evenodd" d="M12.5 5.125C12.5 2.57068 14.5707 0.5 17.125 0.5C19.6793 0.5 21.75 2.57068 21.75 5.125V8.75H24.25V9.75H21.75V11H25.5V17.25H10.5V22.75C10.5 23.7165 11.2835 24.5 12.25 24.5C13.2165 24.5 14 23.7165 14 22.75V22.375C14 20.6491 15.3991 19.25 17.125 19.25H25V20.25H17.125C15.9514 20.25 15 21.2014 15 22.375V22.75C15 24.2688 13.7688 25.5 12.25 25.5C10.7312 25.5 9.5 24.2688 9.5 22.75V17.25H4.75C2.57195 17.25 0.776566 15.6116 0.529102 13.5H0.5V11H20.75V9.75H18.25V8.75H20.75V5.125C20.75 3.12297 19.127 1.5 17.125 1.5C15.123 1.5 13.5 3.12297 13.5 5.125V5.5H12.5V5.125ZM1.53822 13.5C1.77873 15.0575 3.12511 16.25 4.75 16.25H24.5V13.5H1.53822ZM24.5 12.5H1.5V12H24.5V12.5Z"/>
</svg>
