<svg viewBox="0 0 16 16" xmlns="http://www.w3.org/2000/svg" fill="currentColor" width="100%" height="100%">
  <path fill-rule="evenodd" clip-rule="evenodd" d="M7.99992 0.665527C8.36811 0.665527 8.66659 0.964004 8.66659 1.33219V3.99886C8.66659 4.36705 8.36811 4.66553 7.99992 4.66553C7.63173 4.66553 7.33325 4.36705 7.33325 3.99886V1.33219C7.33325 0.964004 7.63173 0.665527 7.99992 0.665527Z"/>
  <path fill-rule="evenodd" clip-rule="evenodd" d="M7.99992 11.3335C8.36811 11.3335 8.66659 11.632 8.66659 12.0002V14.6668C8.66659 15.035 8.36811 15.3335 7.99992 15.3335C7.63173 15.3335 7.33325 15.035 7.33325 14.6668V12.0002C7.33325 11.632 7.63173 11.3335 7.99992 11.3335Z"/>
  <path fill-rule="evenodd" clip-rule="evenodd" d="M2.81758 2.81391C3.07793 2.55356 3.50004 2.55356 3.76039 2.81391L5.64705 4.70058C5.9074 4.96093 5.9074 5.38304 5.64705 5.64339C5.3867 5.90374 4.96459 5.90374 4.70424 5.64339L2.81758 3.75672C2.55723 3.49637 2.55723 3.07426 2.81758 2.81391Z"/>
  <path fill-rule="evenodd" clip-rule="evenodd" d="M10.3566 10.3569C10.617 10.0965 11.0391 10.0965 11.2994 10.3569L13.1861 12.2435C13.4465 12.5039 13.4465 12.926 13.1861 13.1864C12.9258 13.4467 12.5037 13.4467 12.2433 13.1864L10.3566 11.2997C10.0963 11.0393 10.0963 10.6172 10.3566 10.3569Z"/>
  <path fill-rule="evenodd" clip-rule="evenodd" d="M0.669189 8.00016C0.669189 7.63197 0.967666 7.3335 1.33586 7.3335H4.00252C4.37071 7.3335 4.66919 7.63197 4.66919 8.00016C4.66919 8.36835 4.37071 8.66683 4.00252 8.66683H1.33586C0.967666 8.66683 0.669189 8.36835 0.669189 8.00016Z"/>
  <path fill-rule="evenodd" clip-rule="evenodd" d="M11.3333 8.00016C11.3333 7.63197 11.6317 7.3335 11.9999 7.3335H14.6666C15.0348 7.3335 15.3333 7.63197 15.3333 8.00016C15.3333 8.36835 15.0348 8.66683 14.6666 8.66683H11.9999C11.6317 8.66683 11.3333 8.36835 11.3333 8.00016Z"/>
  <path fill-rule="evenodd" clip-rule="evenodd" d="M5.64705 10.3569C5.9074 10.6172 5.9074 11.0393 5.64705 11.2997L3.76039 13.1864C3.50004 13.4467 3.07793 13.4467 2.81758 13.1864C2.55723 12.926 2.55723 12.5039 2.81758 12.2435L4.70424 10.3569C4.96459 10.0965 5.3867 10.0965 5.64705 10.3569Z"/>
  <path fill-rule="evenodd" clip-rule="evenodd" d="M13.1861 2.81391C13.4465 3.07426 13.4465 3.49637 13.1861 3.75672L11.2994 5.64339C11.0391 5.90374 10.617 5.90374 10.3566 5.64339C10.0963 5.38304 10.0963 4.96093 10.3566 4.70058L12.2433 2.81391C12.5037 2.55356 12.9258 2.55356 13.1861 2.81391Z"/>
</svg>
