<svg viewBox="0 0 26 26" xmlns="http://www.w3.org/2000/svg" fill="currentColor" width="100%" height="100%">
  <path fill-rule="evenodd" clip-rule="evenodd" d="M12.86 0.52C12.9514 0.493333 13.0486 0.493333 13.14 0.52L25.14 4.02C25.3533 4.08222 25.5 4.27778 25.5 4.5C25.5 4.72222 25.3533 4.91778 25.14 4.98L13.14 8.48C13.0486 8.50667 12.9514 8.50667 12.86 8.48L0.86 4.98C0.646667 4.91778 0.5 4.72222 0.5 4.5C0.5 4.27778 0.646667 4.08222 0.86 4.02L12.86 0.52ZM2.78571 4.5L13 7.47917L23.2143 4.5L13 1.52083L2.78571 4.5ZM1 8C1.27614 8 1.5 8.22386 1.5 8.5V20.8333L12.5 17.625V12C12.5 11.7239 12.7239 11.5 13 11.5C13.2761 11.5 13.5 11.7239 13.5 12V17.625L24.5 20.8333V8.5C24.5 8.22386 24.7239 8 25 8C25.2761 8 25.5 8.22386 25.5 8.5V21.5C25.5 21.7222 25.3533 21.9178 25.14 21.98L13.14 25.48C13.0486 25.5067 12.9514 25.5067 12.86 25.48L0.86 21.98C0.646667 21.9178 0.5 21.7222 0.5 21.5V8.5C0.5 8.22386 0.723858 8 1 8ZM23.2143 21.5L13 18.5208L2.78571 21.5L12.5 24.3333V21.5C12.5 21.2239 12.7239 21 13 21C13.2761 21 13.5 21.2239 13.5 21.5V24.3333L23.2143 21.5Z"/>
</svg>
