<svg viewBox="0 0 12 12" xmlns="http://www.w3.org/2000/svg" fill="currentColor" width="100%" height="100%">
  <path d="M0.735699 5.85502C0.735699 5.85502 6.04301 3.65984 7.88367 2.88686C8.58929 2.57769 10.9822 1.58827 10.9822 1.58827C10.9822 1.58827 12.0866 1.15544 11.9945 2.20665C11.9639 2.63952 11.7184 4.1545 11.473 5.79319C11.1049 8.11209 10.7061 10.6474 10.7061 10.6474C10.7061 10.6474 10.6447 11.3585 10.1232 11.4822C9.60167 11.6059 8.74265 11.0494 8.58929 10.9256C8.46654 10.8329 6.28842 9.44157 5.4908 8.76136C5.27604 8.57586 5.03063 8.20486 5.52145 7.77198C6.62588 6.75167 7.94503 5.48402 8.74265 4.68015C9.11081 4.30911 9.47892 3.4434 7.94503 4.49461C5.7669 6.00963 3.61944 7.43188 3.61944 7.43188C3.61944 7.43188 3.12858 7.74104 2.20825 7.46277C1.28787 7.18454 0.214139 6.8135 0.214139 6.8135C0.214139 6.8135 -0.522091 6.34973 0.735699 5.85502V5.85502Z"/>
</svg>
