<svg viewBox="0 0 26 26" xmlns="http://www.w3.org/2000/svg" fill="currentColor" width="100%" height="100%">
  <path fill-rule="evenodd" clip-rule="evenodd" d="M6.96204 0.5H19.038C20.42 0.499991 21.5082 0.499983 22.3584 0.614294C23.2308 0.731583 23.9271 0.977402 24.4749 1.52513C25.0226 2.07285 25.2684 2.76917 25.3857 3.64156C25.5 4.49179 25.5 5.58 25.5 6.96202V7.03798C25.5 8.42 25.5 9.50821 25.3857 10.3584C25.2684 11.2308 25.0226 11.9271 24.4749 12.4749C23.9271 13.0226 23.2308 13.2684 22.3584 13.3857C21.5082 13.5 20.42 13.5 19.0379 13.5H6.96205C5.58002 13.5 4.4918 13.5 3.64156 13.3857C2.76917 13.2684 2.07285 13.0226 1.52513 12.4749C0.977402 11.9271 0.731583 11.2308 0.614294 10.3584C0.499983 9.50821 0.499991 8.41999 0.5 7.03797V6.96204C0.499991 5.58001 0.499983 4.49179 0.614294 3.64156C0.731583 2.76917 0.977402 2.07285 1.52513 1.52513C2.07285 0.977402 2.76917 0.731583 3.64156 0.614294C4.49179 0.499983 5.58001 0.499991 6.96204 0.5ZM3.77481 1.60538C3.01331 1.70776 2.56319 1.90128 2.23223 2.23223C1.90128 2.56319 1.70776 3.01331 1.60538 3.77481C1.50106 4.55069 1.5 5.57165 1.5 7C1.5 8.42835 1.50106 9.44931 1.60538 10.2252C1.70776 10.9867 1.90128 11.4368 2.23223 11.7678C2.56319 12.0987 3.01331 12.2922 3.77481 12.3946C4.55069 12.4989 5.57165 12.5 7 12.5H19C20.4283 12.5 21.4493 12.4989 22.2252 12.3946C22.9867 12.2922 23.4368 12.0987 23.7678 11.7678C24.0987 11.4368 24.2922 10.9867 24.3946 10.2252C24.4989 9.44931 24.5 8.42835 24.5 7C24.5 5.57165 24.4989 4.55069 24.3946 3.77481C24.2922 3.01331 24.0987 2.56319 23.7678 2.23223C23.4368 1.90128 22.9867 1.70776 22.2252 1.60538C21.4493 1.50106 20.4283 1.5 19 1.5H7C5.57165 1.5 4.55069 1.50106 3.77481 1.60538ZM22.75 11.25H3.25V10.25H22.75V11.25ZM6.5 19V15.25H7.5V19C7.5 22.5899 4.58985 25.5 1 25.5V24.5C4.03757 24.5 6.5 22.0376 6.5 19ZM12.5 25V15.25H13.5V25H12.5ZM18.5 19V15.25H19.5V19C19.5 22.0376 21.9624 24.5 25 24.5V25.5C21.4101 25.5 18.5 22.5899 18.5 19Z"/>
</svg>
