<svg viewBox="0 0 26 26" xmlns="http://www.w3.org/2000/svg" fill="currentColor" width="100%" height="100%">
  <path fill-rule="evenodd" clip-rule="evenodd" d="M3.56675 2.61879C2.17219 3.31607 1.5 4.18684 1.5 5C1.5 5.617 1.88005 6.26412 2.69487 6.8574C3.50427 7.44674 4.68132 7.93221 6.09919 8.21918C6.99169 8.39982 7.97108 8.5 9 8.5C10.8377 8.5 12.5118 8.18052 13.814 7.65858C14.6854 7.30929 15.3699 6.87764 15.829 6.40988C16.2859 5.94445 16.5 5.46623 16.5 5C16.5 4.18684 15.8278 3.31607 14.4332 2.61879C13.0686 1.93646 11.1483 1.5 9 1.5C6.85165 1.5 4.93141 1.93646 3.56675 2.61879ZM16.5 2.84741C16.0613 2.41307 15.5038 2.03604 14.8805 1.72436C13.3497 0.958972 11.2699 0.5 9 0.5C6.73007 0.5 4.65031 0.958972 3.11954 1.72436C1.61867 2.47479 0.5 3.60402 0.5 5V21C0.5 22.396 1.61867 23.5252 3.11954 24.2756C4.65031 25.041 6.73007 25.5 9 25.5C11.2699 25.5 13.3497 25.041 14.8805 24.2756C16.3813 23.5252 17.5 22.396 17.5 21V13.8831L18.9863 14.7749L18.5957 22.9785C18.5303 24.3512 19.6257 25.5 21 25.5C22.3743 25.5 23.4697 24.3512 23.4043 22.9785L23.0137 14.7749L25.5 13.2831V0.5H16.5V2.84741ZM16.5 7.15328C15.9857 7.66332 15.2997 8.10094 14.5 8.45457V17.5C14.5 18.6046 13.6046 19.5 12.5 19.5C11.3954 19.5 10.5 18.6046 10.5 17.5V13.5C10.5 13.2239 10.2761 13 10 13C9.72386 13 9.5 13.2239 9.5 13.5C9.5 14.6046 8.60457 15.5 7.5 15.5C6.39543 15.5 5.5 14.6046 5.5 13.5V9.11193C4.15353 8.79695 2.9784 8.30083 2.10626 7.66582C1.8869 7.5061 1.68336 7.33484 1.5 7.15285V18C1.5 18.8132 2.17219 19.6839 3.56675 20.3812C4.93141 21.0635 6.85165 21.5 9 21.5C11.1483 21.5 13.0686 21.0635 14.4332 20.3812C15.8278 19.6839 16.5 18.8132 16.5 18V7.15328ZM16.5 20.1526C16.0613 20.5869 15.5038 20.964 14.8805 21.2756C13.3497 22.041 11.2699 22.5 9 22.5C6.73007 22.5 4.65031 22.041 3.11954 21.2756C2.49617 20.964 1.93874 20.5869 1.5 20.1526V21C1.5 21.8132 2.17219 22.6839 3.56675 23.3812C4.93141 24.0635 6.85165 24.5 9 24.5C11.1483 24.5 13.0686 24.0635 14.4332 23.3812C15.8278 22.6839 16.5 21.8132 16.5 21V20.1526ZM6.5 9.30729V13.5C6.5 14.0523 6.94772 14.5 7.5 14.5C8.05228 14.5 8.5 14.0523 8.5 13.5C8.5 12.6716 9.17157 12 10 12C10.8284 12 11.5 12.6716 11.5 13.5V17.5C11.5 18.0523 11.9477 18.5 12.5 18.5C13.0523 18.5 13.5 18.0523 13.5 17.5V8.83454C12.1928 9.25825 10.6477 9.5 9 9.5C8.13047 9.5 7.29065 9.43269 6.5 9.30729ZM17.5 7V12.7169L20.0137 14.2251L19.5946 23.026C19.5564 23.8285 20.1966 24.5 21 24.5C21.8034 24.5 22.4436 23.8285 22.4054 23.026L21.9863 14.2251L24.5 12.7169V7H17.5ZM24.5 6V1.5H23.5V6H24.5ZM22.5 6V1.5H21.5V6H22.5ZM20.5 6V1.5H19.5V6H20.5ZM18.5 6V1.5H17.5V6H18.5Z"/>
</svg>
