<svg viewBox="0 0 12 12" xmlns="http://www.w3.org/2000/svg" fill="currentColor" width="100%" height="100%">
  <path fill-rule="evenodd" clip-rule="evenodd" d="M5.44133 0.533523C2.86002 0.852507 0.831293 2.92288 0.564153 5.51087C0.524567 5.89443 0.548543 6.62066 0.612926 6.98723C0.714832 7.56766 0.883465 8.07831 1.14557 8.60012L1.27726 8.86239L0.884848 10.2956C0.669012 11.0839 0.495879 11.7314 0.500075 11.7345C0.504293 11.7376 1.16164 11.5674 1.96086 11.3563C3.12435 11.0489 3.42566 10.9768 3.47258 10.9947C3.50481 11.007 3.65774 11.0744 3.81243 11.1446C4.31483 11.3724 4.84243 11.5235 5.3976 11.5985C5.78343 11.6507 6.46056 11.6504 6.83586 11.5979C8.06776 11.4254 9.16839 10.8807 10.0359 10.0141C10.4895 9.56099 10.7911 9.1465 11.0783 8.58175C11.3369 8.07313 11.5194 7.5187 11.6214 6.93163C11.681 6.58851 11.6809 5.58027 11.6212 5.22069C11.5204 4.61322 11.3648 4.12787 11.099 3.59179C10.3425 2.06622 8.94552 0.978718 7.27518 0.615109C6.75449 0.501765 5.97796 0.467218 5.44133 0.533523ZM6.90618 1.50355C7.5785 1.62789 8.13601 1.85249 8.68743 2.22114C9.62882 2.85053 10.3218 3.82787 10.5957 4.91247C10.7969 5.70897 10.7811 6.61363 10.5526 7.37952C10.1832 8.61787 9.30275 9.66025 8.15061 10.2233C7.48077 10.5506 6.86097 10.6934 6.1093 10.6934C5.24779 10.6934 4.48407 10.4843 3.70464 10.0351L3.57339 9.95948L2.71082 10.1861C2.23639 10.3108 1.84464 10.4091 1.84023 10.4047C1.83582 10.4004 1.93316 10.0291 2.05654 9.57981C2.17989 9.13049 2.28172 8.74635 2.28282 8.72617C2.28393 8.70597 2.22327 8.58925 2.14804 8.46679C1.04268 6.6678 1.33239 4.29534 2.84064 2.79491C3.5909 2.04855 4.54072 1.58987 5.60539 1.4598C5.89295 1.42466 6.60997 1.44878 6.90618 1.50355ZM3.92134 3.54857C3.7858 3.61567 3.53814 3.90817 3.43459 4.12344C3.2312 4.5463 3.23535 5.07934 3.44586 5.57291C3.70457 6.17943 4.38144 7.04064 5.04964 7.61336C5.51802 8.0148 5.90936 8.25004 6.4843 8.47567C7.07162 8.70618 7.18429 8.73273 7.57415 8.73257C7.88078 8.73245 7.92943 8.72662 8.072 8.6729C8.30643 8.58459 8.48139 8.47333 8.65569 8.30174C8.79093 8.16859 8.81816 8.12695 8.86243 7.98534C8.91765 7.80878 8.9492 7.52465 8.92452 7.42628C8.91161 7.37486 8.8454 7.33312 8.51242 7.16641C7.90234 6.86094 7.65643 6.75585 7.55193 6.75585C7.46631 6.75585 7.45171 6.76635 7.34818 6.90234C7.11154 7.21319 6.89439 7.45391 6.83781 7.46812C6.77005 7.48511 6.6369 7.43636 6.32938 7.28191C5.83147 7.03185 5.42525 6.69747 5.07601 6.25019C4.88593 6.00676 4.71477 5.72936 4.71477 5.66474C4.71477 5.63706 4.8029 5.49946 4.91061 5.35898C5.12172 5.08361 5.18352 4.98086 5.18352 4.90523C5.18352 4.87869 5.13775 4.74897 5.0818 4.61697C5.02586 4.48494 4.91303 4.21347 4.83107 4.01366C4.72947 3.76602 4.65814 3.62612 4.607 3.57421L4.53196 3.49804L4.27766 3.49806C4.0645 3.49806 4.00686 3.50624 3.92134 3.54857Z"/>
</svg>
