<svg width="68" height="65" viewBox="0 0 68 65" fill="none" xmlns="http://www.w3.org/2000/svg">
<g filter="url(#filter0_d_2841_29039)">
<path d="M56.5042 22.2907C57.5439 20.5016 58.1439 18.4149 58.1439 16.1902V16.011C58.1439 9.3888 52.8553 4 46.3562 4H42.2517H42.1338H9V13.6805H28.001L9 33.0414V42.7219H42.1338H42.2517H47.9396C54.4387 42.7219 59.7273 37.3331 59.7273 30.7109V30.5317C59.7273 27.3443 58.4993 24.4437 56.5042 22.2907ZM50.7546 33.5577C50.3623 34.1583 49.6445 34.3698 49.0445 34.6584C48.3707 34.9847 47.6335 35.0062 46.9034 35.06C46.599 35.0833 46.1346 35.0618 45.8707 35.094C44.3805 35.2787 42.8534 35.5117 41.3878 35.682C38.4233 36.0262 34.2009 35.6175 31.6481 35.0564C29.0953 34.4953 27.7828 34.2246 26.5829 32.3566C25.383 30.4886 25.1983 31.8744 26.0973 29.3413C26.9964 26.8083 30.0682 22.902 31.97 20.9767C33.8719 19.0513 35.9972 17.2963 37.556 15.7851C39.1148 14.2739 40.8354 13.4797 42.1637 12.6604C43.492 11.8412 43.953 11.6709 45.0948 11.5418C46.2366 11.4127 45.8601 12.3575 46.6043 12.7572C46.592 12.7752 46.5814 12.7823 46.5709 12.7841C46.5955 12.8092 46.6342 12.8594 46.6923 12.9509C46.9861 13.4098 47.4981 14.2183 47.396 14.9085C47.294 15.5986 46.972 15.9859 46.3334 16.2135C46.1363 17.1368 45.9956 17.4397 44.9769 17.4146C43.9582 17.3895 43.1771 17.2945 42.0581 17.0543C40.9392 16.8141 40.7263 16.8159 39.6901 18.1586C38.6538 19.5013 36.7942 22.1312 36.1291 24.0117C35.4641 25.894 34.931 27.5325 33.7487 29.0957C34.2273 28.7462 34.5528 28.4826 35.0243 28.0631C35.4061 27.7243 35.8522 27.4663 36.1793 27.2322C36.3361 27.0976 36.7507 26.8588 36.7507 26.8588C36.9765 26.7264 37.0717 26.6952 37.2551 26.6057C39.1605 25.6753 40.6137 25.7757 42.4399 26.8262C42.9695 26.2472 43.1789 25.5677 43.9336 25.1733C47.0934 23.5223 49.2838 23.5133 51.4337 26.5573C53.2511 29.1352 52.2659 31.2416 50.7546 33.5577Z" fill="#ECB63E"/>
<path d="M13.9528 52.2163V50.5982H11.4952L13.8872 47.5459V46.0841H9V47.7022H11.3826L9 50.7453V52.2163H13.9528Z" fill="#ECB63E"/>
<path d="M19.5399 52.2163V50.5982H16.6882V49.9271H19.4742V48.309H16.6882V47.7022H19.5399V46.0841H14.7934V52.2163H19.5399Z" fill="#ECB63E"/>
<path d="M27.8105 52.2163V46.0841H25.1934L24.0959 49.0261L22.9984 46.0841H20.3813V52.2163H22.2761V48.5297L23.6738 52.2163H24.518L25.9157 48.5297V52.2163H27.8105Z" fill="#ECB63E"/>
<path d="M31.2568 52.3267C32.9359 52.3267 33.9583 51.5452 33.9583 50.1937C33.9583 47.9137 30.4782 48.4101 30.4782 47.8309C30.4782 47.6746 30.5814 47.5551 30.9566 47.5551C31.5476 47.5551 32.2511 47.7574 32.7952 48.1619L33.8083 46.8472C33.0953 46.2772 32.1761 45.9922 31.1536 45.9922C29.437 45.9922 28.5553 46.9851 28.5553 48.024C28.5553 50.4419 32.0447 49.8444 32.0447 50.4328C32.0447 50.6718 31.7071 50.7637 31.3506 50.7637C30.5064 50.7637 29.8028 50.4144 29.3338 49.9731L28.3489 51.3521C29.0149 51.9405 29.9248 52.3267 31.2568 52.3267Z" fill="#ECB63E"/>
<path d="M38.5104 52.2163C39.7674 52.2163 40.3584 51.4073 40.3584 50.5523C40.3584 49.7616 39.8425 49.1548 39.1671 49.0537C39.7768 48.925 40.2364 48.4101 40.2364 47.6471C40.2364 46.9299 39.6736 46.0841 38.3791 46.0841H34.5801V52.2163H38.5104ZM37.9382 48.3458H36.4749V47.6287H37.9382C38.1352 47.6287 38.3135 47.7666 38.3135 47.978C38.3135 48.1987 38.1352 48.3458 37.9382 48.3458ZM37.9945 50.6718H36.4749V49.8903H37.9945C38.2666 49.8903 38.4354 50.065 38.4354 50.2857C38.4354 50.5155 38.2666 50.6718 37.9945 50.6718Z" fill="#ECB63E"/>
<path d="M47.443 52.2163L45.1355 46.0841H42.7529L40.4453 52.2163H42.5934L42.8185 51.4992H45.0698L45.2949 52.2163H47.443ZM44.5633 49.8811H43.3251L43.9442 47.9045L44.5633 49.8811Z" fill="#ECB63E"/>
<path d="M52.5644 52.2163V50.5982H50.1067L52.4987 47.5459V46.0841H47.6115V47.7022H49.9941L47.6115 50.7453V52.2163H52.5644Z" fill="#ECB63E"/>
<path d="M59.7273 52.2163L57.4197 46.0841H55.0371L52.7295 52.2163H54.8776L55.1028 51.4992H57.354L57.5792 52.2163H59.7273ZM56.8475 49.8811H55.6093L56.2284 47.9045L56.8475 49.8811Z" fill="#ECB63E"/>
</g>
<defs>
<filter id="filter0_d_2841_29039" x="0.818181" y="0.181818" width="67.0907" height="64.6918" filterUnits="userSpaceOnUse" color-interpolation-filters="sRGB">
<feFlood flood-opacity="0" result="BackgroundImageFix"/>
<feColorMatrix in="SourceAlpha" type="matrix" values="0 0 0 0 0 0 0 0 0 0 0 0 0 0 0 0 0 0 127 0" result="hardAlpha"/>
<feOffset dy="4.36364"/>
<feGaussianBlur stdDeviation="4.09091"/>
<feComposite in2="hardAlpha" operator="out"/>
<feColorMatrix type="matrix" values="0 0 0 0 0 0 0 0 0 0 0 0 0 0 0 0 0 0 0.7 0"/>
<feBlend mode="normal" in2="BackgroundImageFix" result="effect1_dropShadow_2841_29039"/>
<feBlend mode="normal" in="SourceGraphic" in2="effect1_dropShadow_2841_29039" result="shape"/>
</filter>
</defs>
</svg>
