<svg width="38" height="32" viewBox="0 0 38 32" fill="none" xmlns="http://www.w3.org/2000/svg">
<g filter="url(#filter0_d_2818_29035)">
<path d="M32.0939 11.3367C32.7088 10.2278 33.0636 8.93444 33.0636 7.55556V7.44444C33.0636 3.34 29.9359 0 26.0924 0H23.665H23.5953H4V6H15.2371L4 18V24H23.5953H23.665H27.0288C30.8723 24 34 20.66 34 16.5556V16.4444C34 14.4689 33.2738 12.6711 32.0939 11.3367ZM28.6936 18.32C28.4616 18.6922 28.037 18.8233 27.6822 19.0022C27.2837 19.2044 26.8478 19.2178 26.416 19.2511C26.236 19.2656 25.9613 19.2522 25.8052 19.2722C24.9239 19.3867 24.0208 19.5311 23.1541 19.6367C21.4009 19.85 18.9038 19.5967 17.394 19.2489C15.8843 18.9011 15.1081 18.7333 14.3985 17.5756C13.6889 16.4178 13.5796 17.2767 14.1113 15.7067C14.643 14.1367 16.4597 11.7156 17.5844 10.5222C18.7092 9.32889 19.9661 8.24111 20.8879 7.30444C21.8098 6.36778 22.8274 5.87556 23.6129 5.36778C24.3985 4.86 24.6711 4.75444 25.3464 4.67444C26.0216 4.59444 25.799 5.18 26.2391 5.42778C26.2318 5.43889 26.2256 5.44333 26.2193 5.44444C26.2339 5.46 26.2568 5.49111 26.2911 5.54778C26.4649 5.83222 26.7677 6.33333 26.7073 6.76111C26.647 7.18889 26.4566 7.42889 26.0789 7.57C25.9623 8.14222 25.8791 8.33 25.2767 8.31444C24.6742 8.29889 24.2123 8.24 23.5505 8.09111C22.8888 7.94222 22.7629 7.94333 22.15 8.77556C21.5372 9.60778 20.4374 11.2378 20.0441 12.4033C19.6508 13.57 19.3356 14.5856 18.6364 15.5544C18.9194 15.3378 19.1119 15.1744 19.3907 14.9144C19.6165 14.7044 19.8804 14.5445 20.0738 14.3994C20.1665 14.316 20.4117 14.168 20.4117 14.168C20.5452 14.0859 20.6016 14.0666 20.71 14.0111C21.8369 13.4344 22.6963 13.4967 23.7763 14.1478C24.0895 13.7889 24.2133 13.3678 24.6597 13.1233C26.5284 12.1 27.8237 12.0944 29.0952 13.9811C30.17 15.5789 29.5873 16.8844 28.6936 18.32Z" fill="#ECB63E"/>
</g>
<defs>
<filter id="filter0_d_2818_29035" x="0" y="0" width="38" height="32" filterUnits="userSpaceOnUse" color-interpolation-filters="sRGB">
<feFlood flood-opacity="0" result="BackgroundImageFix"/>
<feColorMatrix in="SourceAlpha" type="matrix" values="0 0 0 0 0 0 0 0 0 0 0 0 0 0 0 0 0 0 127 0" result="hardAlpha"/>
<feOffset dy="4"/>
<feGaussianBlur stdDeviation="2"/>
<feComposite in2="hardAlpha" operator="out"/>
<feColorMatrix type="matrix" values="0 0 0 0 0.0588235 0 0 0 0 0.0588235 0 0 0 0 0.0588235 0 0 0 0.5 0"/>
<feBlend mode="normal" in2="BackgroundImageFix" result="effect1_dropShadow_2818_29035"/>
<feBlend mode="normal" in="SourceGraphic" in2="effect1_dropShadow_2818_29035" result="shape"/>
</filter>
</defs>
</svg>
