<svg width="128" height="16" viewBox="0 0 128 16" fill="none" xmlns="http://www.w3.org/2000/svg">
<path d="M0 3.9999H8.02089L0 11.9997V15.9996H14.0366V11.9997H6.01567L14.0366 3.9999V0H0V3.9999Z" fill="#606060"/>
<path d="M16.376 15.9996H28.0731V11.9997H20.7206V9.99976H26.0679V5.99985H20.7206V3.9999H28.0731V0H16.376V15.9996Z" fill="#606060"/>
<path d="M38.7676 8.66646L34.423 0H30.4125V15.9996H34.423V8.9109L36.7624 13.333H40.7728L43.1123 8.9109V15.9996H47.1227V0H43.1123L38.7676 8.66646Z" fill="#606060"/>
<path d="M60.5841 0L52.3578 0.000386547C50.759 0.000386547 49.4621 1.32684 49.4621 2.96213V5.5817C49.4621 7.12589 50.481 8.48123 51.9386 8.87894L59.4883 10.9997V12.0003L53.4726 12.0007V10.6675H49.4621V13.0383C49.4621 14.6736 50.759 16 52.3578 16L60.5841 15.9996C62.1829 15.9996 63.4987 14.6732 63.4987 13.0379V10.4183C63.4987 8.87411 62.461 7.51877 61.0034 7.12106L53.4726 5.00025V3.99973L59.4883 3.99935V5.33246H63.4987V2.96174C63.4987 1.32645 62.1829 0 60.5841 0Z" fill="#606060"/>
<path fill-rule="evenodd" clip-rule="evenodd" d="M77.2011 0H65.8381V15.9996H77.2011C78.6777 15.9996 79.8747 14.8057 79.8747 13.333V9.99976C79.8747 9.07931 79.1265 7.99981 78.2037 7.99981C79.1265 7.99981 79.8747 6.92031 79.8747 5.99986V2.6666C79.8747 1.19388 78.6777 0 77.2011 0ZM69.8486 3.9999V6.33318H75.8642V3.9999H69.8486ZM69.8486 9.66643V11.9997H75.8642V9.66643H69.8486Z" fill="#ECB63E"/>
<path fill-rule="evenodd" clip-rule="evenodd" d="M80.5431 15.9996L86.5588 0H90.5692L96.5849 15.9996H92.5744L91.1994 11.9997H85.9285L84.5535 15.9996H80.5431ZM87.3036 7.99981L88.564 4.33323L89.8244 7.99981H87.3036Z" fill="#ECB63E"/>
<path d="M97.2533 3.9999H105.274L97.2533 11.9997V15.9996H111.29V11.9997H103.269L111.29 3.9999V0H97.2533V3.9999Z" fill="#ECB63E"/>
<path fill-rule="evenodd" clip-rule="evenodd" d="M111.958 15.9996L117.974 0H121.984L128 15.9996H123.99L122.615 11.9997H117.344L115.969 15.9996H111.958ZM118.719 7.99981L119.979 4.33323L121.24 7.99981H118.719Z" fill="#ECB63E"/>
</svg>
