<svg width="48" height="48" viewBox="0 0 48 48" fill="none" xmlns="http://www.w3.org/2000/svg">
<path d="M28.9299 10.4633C28.5169 10.3131 28.2285 9.92843 28.2285 9.48896V7.26248C28.2285 6.61767 28.8306 6.14066 29.4468 6.33069C35.287 8.13178 39.8697 12.7156 41.67 18.565C41.8596 19.1812 41.3827 19.7831 40.738 19.7831H38.5098C38.0709 19.7831 37.6866 19.4954 37.5363 19.0831C36.0755 15.0759 32.9263 11.9167 28.9299 10.4633ZM10.4633 19.0816C10.3131 19.4947 9.92843 19.7831 9.48896 19.7831H7.26199C6.61734 19.7831 6.14035 19.1812 6.32999 18.565C8.13059 12.7148 12.7148 8.1306 18.565 6.32999C19.1812 6.14035 19.7831 6.61734 19.7831 7.26199V9.4902C19.7831 9.92907 19.4954 10.3134 19.0831 10.4638C15.0759 11.9256 11.9167 15.0841 10.4633 19.0816ZM19.0831 37.5477C19.4954 37.6982 19.7831 38.0825 19.7831 38.5214V40.738C19.7831 41.3827 19.1812 41.8596 18.565 41.67C12.7156 39.8697 8.13178 35.287 6.33069 29.4468C6.14066 28.8306 6.61767 28.2285 7.26248 28.2285H9.48896C9.92843 28.2285 10.3131 28.5169 10.4633 28.9299C11.9167 32.9274 15.0759 36.0859 19.0831 37.5477ZM37.5367 28.9299C37.6869 28.5169 38.0716 28.2285 38.511 28.2285H40.7375C41.3823 28.2285 41.8593 28.8306 41.6693 29.4468C39.8685 35.2862 35.2862 39.8685 29.4468 41.6693C28.8306 41.8593 28.2285 41.3823 28.2285 40.7375V38.511C28.2285 38.0716 28.5169 37.6869 28.9299 37.5367C32.9263 36.0837 36.0837 32.9263 37.5367 28.9299Z" fill="#ECB63E"/>
</svg>
