
<svg width="0" height="0" class="hidden">
  <symbol xmlns="http://www.w3.org/2000/svg" fill="currentColor" viewBox="0 0 24 24" id="arrow">
    <path fill-rule="evenodd" clip-rule="evenodd" d="M12 23C18.0751 23 23 18.0751 23 12C23 5.92487 18.0751 1 12 1C5.92487 1 1 5.92487 1 12C1 18.0751 5.92487 23 12 23ZM12 24C18.6274 24 24 18.6274 24 12C24 5.37258 18.6274 0 12 0C5.37258 0 0 5.37258 0 12C0 18.6274 5.37258 24 12 24Z"></path>
    <path d="M17.5909 12.2389C17.9163 12.5643 17.9163 13.0919 17.5909 13.4174L12.5909 18.4174C12.4346 18.5737 12.2226 18.6615 12.0016 18.6615C11.7806 18.6615 11.5687 18.5737 11.4124 18.4174L6.41237 13.4174C6.08694 13.0919 6.08694 12.5643 6.41237 12.2389C6.73781 11.9134 7.26545 11.9134 7.59088 12.2389L11.1683 15.8163L11.1683 6.16146C11.1683 5.70122 11.5414 5.32812 12.0016 5.32812C12.4619 5.32812 12.835 5.70122 12.835 6.16146L12.835 15.8163L16.4124 12.2389C16.7378 11.9134 17.2654 11.9134 17.5909 12.2389Z"></path>
  </symbol>
  <symbol xmlns="http://www.w3.org/2000/svg" fill="currentColor" viewBox="0 0 16 16" id="cart">
    <path d="M2.76107 2.66668L4.00576 10.7571C4.01482 10.8239 4.03376 10.8875 4.06108 10.9465C4.14329 11.124 4.30131 11.2593 4.49359 11.3107C4.55233 11.3265 4.6139 11.3344 4.67686 11.3333H11.9997C12.2941 11.3333 12.5536 11.1402 12.6382 10.8582L14.6382 4.19158C14.6988 3.98973 14.6603 3.77113 14.5345 3.60206C14.4087 3.43298 14.2104 3.33334 13.9997 3.33334H4.21266L3.9934 1.90814C3.98518 1.84855 3.96909 1.79147 3.94621 1.738C3.90468 1.64061 3.84109 1.55626 3.76254 1.49014C3.68966 1.42868 3.60341 1.38256 3.50879 1.35676C3.44923 1.34045 3.38674 1.33228 3.3228 1.33334H1.99967C1.63148 1.33334 1.33301 1.63182 1.33301 2.00001C1.33301 2.3682 1.63148 2.66668 1.99967 2.66668H2.76107ZM5.2383 10L4.41779 4.66668H13.1037L11.5037 10H5.2383Z"></path>
    <path d="M6.66634 13.3333C6.66634 14.0697 6.06939 14.6667 5.33301 14.6667C4.59663 14.6667 3.99967 14.0697 3.99967 13.3333C3.99967 12.597 4.59663 12 5.33301 12C6.06939 12 6.66634 12.597 6.66634 13.3333Z"></path>
    <path d="M12.6663 13.3333C12.6663 14.0697 12.0694 14.6667 11.333 14.6667C10.5966 14.6667 9.99967 14.0697 9.99967 13.3333C9.99967 12.597 10.5966 12 11.333 12C12.0694 12 12.6663 12.597 12.6663 13.3333Z"></path>
  </symbol>
  <symbol xmlns="http://www.w3.org/2000/svg" fill="currentColor" viewBox="0 0 16 16" id="change">
    <path d="M9.52892 1.52864C9.78927 1.26829 10.2114 1.26829 10.4717 1.52864L13.1384 4.1953C13.3987 4.45565 13.3987 4.87776 13.1384 5.13811L10.4717 7.80478C10.2114 8.06513 9.78927 8.06513 9.52892 7.80478C9.26857 7.54443 9.26857 7.12232 9.52892 6.86197L11.0575 5.33337L3.33366 5.33337C2.96547 5.33337 2.66699 5.0349 2.66699 4.66671C2.66699 4.29852 2.96547 4.00004 3.33366 4.00004L11.0575 4.00004L9.52892 2.47145C9.26857 2.2111 9.26857 1.78899 9.52892 1.52864ZM6.47173 8.1953C6.73208 8.45565 6.73208 8.87776 6.47173 9.13811L4.94313 10.6667H12.667C13.0352 10.6667 13.3337 10.9652 13.3337 11.3334C13.3337 11.7016 13.0352 12 12.667 12H4.94313L6.47173 13.5286C6.73208 13.789 6.73208 14.2111 6.47173 14.4714C6.21138 14.7318 5.78927 14.7318 5.52892 14.4714L2.86225 11.8048C2.73723 11.6798 2.66699 11.5102 2.66699 11.3334C2.66699 11.1566 2.73723 10.987 2.86225 10.862L5.52892 8.1953C5.78927 7.93495 6.21138 7.93495 6.47173 8.1953Z"></path>
  </symbol>
  <symbol xmlns="http://www.w3.org/2000/svg" fill="currentColor" viewBox="0 0 12 12" id="check">
    <path d="M10.3322 2.62532C10.5386 2.80878 10.5572 3.12482 10.3737 3.33121L5.04038 9.33121C4.94549 9.43796 4.80949 9.49903 4.66667 9.49903C4.52385 9.49903 4.38785 9.43796 4.29297 9.33121L1.6263 6.33121C1.44284 6.12482 1.46143 5.80878 1.66782 5.62532C1.87421 5.44187 2.19025 5.46046 2.37371 5.66685L4.66667 8.24643L9.6263 2.66685C9.80976 2.46046 10.1258 2.44187 10.3322 2.62532Z"></path>
  </symbol>
  <symbol xmlns="http://www.w3.org/2000/svg" fill="currentColor" viewBox="0 0 16 16" id="chevron">
    <path d="M6.19526 12.4714C5.93491 12.211 5.93491 11.7889 6.19526 11.5286L9.72386 7.99996L6.19526 4.47136C5.93491 4.21101 5.93491 3.7889 6.19526 3.52856C6.45561 3.26821 6.87772 3.26821 7.13807 3.52856L11.1381 7.52855C11.3984 7.7889 11.3984 8.21101 11.1381 8.47136L7.13807 12.4714C6.87772 12.7317 6.45561 12.7317 6.19526 12.4714Z"></path>
  </symbol>
  <symbol xmlns="http://www.w3.org/2000/svg" fill="currentColor" viewBox="0 0 24 24" id="clock">
    <path d="M12.0039 3.99805C7.58563 3.99805 4.00391 7.57977 4.00391 11.998C4.00391 16.4163 7.58563 19.998 12.0039 19.998C16.4222 19.998 20.0039 16.4163 20.0039 11.998C20.0039 7.57977 16.4222 3.99805 12.0039 3.99805ZM2.00391 11.998C2.00391 6.4752 6.48106 1.99805 12.0039 1.99805C17.5268 1.99805 22.0039 6.4752 22.0039 11.998C22.0039 17.5209 17.5268 21.998 12.0039 21.998C6.48106 21.998 2.00391 17.5209 2.00391 11.998ZM12.0039 5.99805C12.5562 5.99805 13.0039 6.44576 13.0039 6.99805V11.5838L15.711 14.2909C16.1015 14.6815 16.1015 15.3146 15.711 15.7052C15.3205 16.0957 14.6873 16.0957 14.2968 15.7052L11.2968 12.7052C11.1093 12.5176 11.0039 12.2633 11.0039 11.998V6.99805C11.0039 6.44576 11.4516 5.99805 12.0039 5.99805Z"></path>
  </symbol>
  <symbol xmlns="http://www.w3.org/2000/svg" fill="currentColor" viewBox="0 0 24 24" id="close">
    <path d="M5.29289 5.29289C5.68342 4.90237 6.31658 4.90237 6.70711 5.29289L12 10.5858L17.2929 5.29289C17.6834 4.90237 18.3166 4.90237 18.7071 5.29289C19.0976 5.68342 19.0976 6.31658 18.7071 6.70711L13.4142 12L18.7071 17.2929C19.0976 17.6834 19.0976 18.3166 18.7071 18.7071C18.3166 19.0976 17.6834 19.0976 17.2929 18.7071L12 13.4142L6.70711 18.7071C6.31658 19.0976 5.68342 19.0976 5.29289 18.7071C4.90237 18.3166 4.90237 17.6834 5.29289 17.2929L10.5858 12L5.29289 6.70711C4.90237 6.31658 4.90237 5.68342 5.29289 5.29289Z"></path>
  </symbol>
  <symbol xmlns="http://www.w3.org/2000/svg" fill="currentColor" viewBox="0 0 26 26" id="decor">
    <path fill-rule="evenodd" clip-rule="evenodd" d="M4.5 1C4.5 0.723858 4.72386 0.5 5 0.5H21C21.1117 0.5 21.2202 0.537404 21.3082 0.606247L25.3082 3.73668C25.4292 3.83145 25.5 3.97667 25.5 4.13043V25C25.5 25.2761 25.2761 25.5 25 25.5H1C0.723858 25.5 0.5 25.2761 0.5 25V9.34783C0.5 9.07168 0.723858 8.84783 1 8.84783H4.5V1ZM4.5 9.84783H1.5V13.0217H4.5V9.84783ZM5.5 13.0217H6.5V9.84783H5.5V13.0217ZM5.5 8.84783H6.5V3.6087C6.5 3.33255 6.72386 3.1087 7 3.1087H19C19.2761 3.1087 19.5 3.33255 19.5 3.6087V8.84783H20.5V1.5H5.5V8.84783ZM21.5 2.02622L24.5 4.37405V24.5H17.5V14.0217H21C21.2761 14.0217 21.5 13.7979 21.5 13.5217V2.02622ZM20.5 13.0217V9.84783H19.5V13.0217H20.5ZM18.5 13.0217V9.84783H17.5V13.0217H18.5ZM16.5 13.0217V9.84783H7.5V13.0217H16.5ZM7.5 8.84783H18.5V4.1087H7.5V8.84783ZM16.5 14.0217H1.5V24.5H2.5V16.1304C2.5 15.8543 2.72386 15.6304 3 15.6304H15C15.2761 15.6304 15.5 15.8543 15.5 16.1304V24.5H16.5V14.0217ZM14.5 24.5V16.6304H12V24.5H14.5ZM11 24.5V16.6304H3.5V24.5H11ZM18.5 16.1304C18.5 15.8543 18.7239 15.6304 19 15.6304H23C23.2761 15.6304 23.5 15.8543 23.5 16.1304V20.8261C23.5 21.1022 23.2761 21.3261 23 21.3261H19C18.7239 21.3261 18.5 21.1022 18.5 20.8261V16.1304ZM19.5 16.6304V20.3261H22.5V16.6304H19.5Z"></path>
  </symbol>
  <symbol xmlns="http://www.w3.org/2000/svg" fill="currentColor" viewBox="0 0 24 26" id="door">
    <path fill-rule="evenodd" clip-rule="evenodd" d="M3.5 1C3.5 0.723858 3.72386 0.5 4 0.5H20C20.2761 0.5 20.5 0.723858 20.5 1V24.5H24V25.5H0V24.5H3.5V1ZM4.5 24.5H5.5V3.20711L4.5 2.20711V24.5ZM5.20711 1.5H18.7929L17.7929 2.5H6.20711L5.20711 1.5ZM6.5 3.5V24.5H17.5V3.5H6.5ZM18.5 3.20711V24.5H19.5V2.20711L18.5 3.20711ZM13.5 14C13.5 13.1716 14.1716 12.5 15 12.5C15.8284 12.5 16.5 13.1716 16.5 14C16.5 14.8284 15.8284 15.5 15 15.5C14.1716 15.5 13.5 14.8284 13.5 14ZM15 13.5C14.7239 13.5 14.5 13.7239 14.5 14C14.5 14.2761 14.7239 14.5 15 14.5C15.2761 14.5 15.5 14.2761 15.5 14C15.5 13.7239 15.2761 13.5 15 13.5Z"></path>
  </symbol>
  <symbol xmlns="http://www.w3.org/2000/svg" fill="currentColor" viewBox="0 0 26 26" id="electric">
    <path fill-rule="evenodd" clip-rule="evenodd" d="M0.704748 8.8824C-0.359714 4.62455 2.86065 0.5 7.24954 0.5C11.6384 0.5 14.8588 4.62456 13.7943 8.88241L11.7496 17.0614L11.7495 23C11.7495 23 11.7495 23 11.7495 23C11.7495 24.3807 10.6302 25.5 9.24954 25.5H5.24954C3.86882 25.5 2.74954 24.3807 2.74954 23V17.0616L0.704748 8.8824ZM3.74954 17.5V19.3975L10.75 18.0851L10.7498 17.5H3.74954ZM10.8591 16.5L12.8242 8.63987C13.7309 5.01317 10.9879 1.5 7.24954 1.5C3.51122 1.5 0.768215 5.01317 1.67489 8.63987L3.63992 16.5H4.74954L4.74954 12.5C4.74954 11.1193 5.86882 10 7.24954 10C8.63025 10 9.74954 11.1193 9.74954 12.5V16.5H10.8591ZM8.74954 16.5V12.5C8.74954 11.6716 8.07796 11 7.24954 11C6.42111 11 5.74954 11.6716 5.74954 12.5L5.74954 16.5H8.74954ZM10.7502 19.1025L3.74954 20.415V22.3975L10.7498 21.0851L10.7502 19.1025ZM10.7497 22.1026L3.80474 23.4046C3.98133 24.0365 4.56131 24.5 5.24954 24.5H9.24954C10.078 24.5 10.7495 23.8284 10.7495 23L10.7497 22.1026ZM24.0002 1.5C22.0672 1.5 20.5002 3.067 20.5002 5V9.52746C22.7502 9.77619 24.5002 11.6837 24.5002 14V16.5854C25.0828 16.7913 25.5002 17.3469 25.5002 18C25.5002 18.6531 25.0828 19.2087 24.5002 19.4146V24C24.5002 24.8284 23.8287 25.5 23.0002 25.5C22.1718 25.5 21.5002 24.8284 21.5002 24V19.5H18.5002V24C18.5002 24.8284 17.8287 25.5 17.0002 25.5C16.1718 25.5 15.5002 24.8284 15.5002 24V19.4146C14.9177 19.2087 14.5002 18.6531 14.5002 18C14.5002 17.3469 14.9177 16.7913 15.5002 16.5854V14C15.5002 11.6837 17.2503 9.77619 19.5002 9.52746V5C19.5002 2.51472 21.515 0.5 24.0002 0.5H25.0002V1.5H24.0002ZM16.5002 16.5H23.5002V14C23.5002 12.067 21.9332 10.5 20.0002 10.5C18.0672 10.5 16.5002 12.067 16.5002 14V16.5ZM16.5002 19.5V24C16.5002 24.2761 16.7241 24.5 17.0002 24.5C17.2764 24.5 17.5002 24.2761 17.5002 24V19.5H16.5002ZM24.0002 18.5C24.2764 18.5 24.5002 18.2761 24.5002 18C24.5002 17.7239 24.2764 17.5 24.0002 17.5H16.0002C15.7241 17.5 15.5002 17.7239 15.5002 18C15.5002 18.2761 15.7241 18.5 16.0002 18.5H24.0002ZM23.5002 19.5H22.5002V24C22.5002 24.2761 22.7241 24.5 23.0002 24.5C23.2764 24.5 23.5002 24.2761 23.5002 24V19.5Z"></path>
  </symbol>
  <symbol xmlns="http://www.w3.org/2000/svg" fill="currentColor" viewBox="0 0 24 24" id="envelope">
    <path d="M2 6C2 4.89543 2.89543 4 4 4H20C21.1046 4 22 4.89543 22 6V18C22 19.1046 21.1046 20 20 20H4C2.89543 20 2 19.1046 2 18V6ZM5.51859 6L12 11.6712L18.4814 6H5.51859ZM20 7.32877L12.6585 13.7526C12.2815 14.0825 11.7185 14.0825 11.3415 13.7526L4 7.32877V18H20V7.32877Z"></path>
  </symbol>
  <symbol xmlns="http://www.w3.org/2000/svg" fill="currentColor" viewBox="0 0 26 25" id="floor">
    <path fill-rule="evenodd" clip-rule="evenodd" d="M1.5 3.5V0H0.5V24H1.5V20.5H8.5V24.5H17.5V20.5H24.5V24H25.5V0H24.5V3.5H17.5V0H16.5V7.5H9.5V0H8.5V3.5H1.5ZM8.5 4.5H1.5V19.5H8.5V4.5ZM9.5 8.5V23.5H16.5V8.5H9.5ZM17.5 19.5H24.5V4.5H17.5V19.5Z"></path>
  </symbol>
  <symbol xmlns="http://www.w3.org/2000/svg" fill="currentColor" viewBox="0 0 21 16" id="gift">
    <path fill-rule="evenodd" clip-rule="evenodd" d="M20.3445 5.03704C20.3445 5.9563 20.0961 6.81852 19.6657 7.55778C20.4916 8.44741 21 9.64593 21 10.963V11.037C21 13.7733 18.8106 16 16.1202 16H13.7655H13.7167H0V12L7.86599 4H0V0H13.7167H13.7655H15.4647C18.1551 0 20.3445 2.22667 20.3445 4.96296V5.03704ZM10.1747 3.93258C10.1747 2.78111 11.0883 1.84766 12.2153 1.84766C12.738 1.84766 13.2147 2.0484 13.5757 2.37855C13.9368 2.0484 14.4135 1.84766 14.9362 1.84766C16.0632 1.84766 16.9768 2.78111 16.9768 3.93258C16.9768 4.17627 16.9359 4.41019 16.8607 4.62756H17.657C18.4084 4.62756 19.0175 5.24986 19.0175 6.01751C19.0175 6.78516 18.4084 7.40746 17.657 7.40746H14.256V6.71249C14.256 6.32866 13.9514 6.01751 13.5757 6.01751C13.2001 6.01751 12.8955 6.32866 12.8955 6.71249V7.40746H9.49446C8.74312 7.40746 8.13403 6.78516 8.13403 6.01751C8.13403 5.24986 8.74312 4.62756 9.49446 4.62756H10.2908C10.2156 4.41019 10.1747 4.17627 10.1747 3.93258ZM12.8955 4.62756V3.93258C12.8955 3.54876 12.591 3.23761 12.2153 3.23761C11.8396 3.23761 11.5351 3.54876 11.5351 3.93258C11.5351 4.31641 11.8396 4.62756 12.2153 4.62756H12.8955ZM14.9362 4.62756C15.3118 4.62756 15.6164 4.31641 15.6164 3.93258C15.6164 3.54876 15.3118 3.23761 14.9362 3.23761C14.5605 3.23761 14.256 3.54876 14.256 3.93258V4.62756H14.9362ZM12.9161 8.77636H8.83486V12.2512C8.83486 13.0189 9.44394 13.6412 10.1953 13.6412H12.9161V8.77636ZM16.9974 13.6412H14.2766V8.77636H18.3579V12.2512C18.3579 13.0189 17.7488 13.6412 16.9974 13.6412Z"></path>
  </symbol>
  <symbol xmlns="http://www.w3.org/2000/svg" fill="currentColor" viewBox="0 0 19 18" id="hand">
    <path d="M17.8255 16.3313C17.5482 16.7766 17.0409 16.9334 16.6169 17.1474C16.1406 17.3893 15.6196 17.4052 15.1036 17.4451C14.8885 17.4624 14.5602 17.4464 14.3737 17.4704C13.3205 17.6073 12.2412 17.78 11.2055 17.9063C9.11029 18.1615 6.12607 17.8584 4.32185 17.4424C2.51764 17.0264 1.59005 16.8258 0.74203 15.4409C-0.105986 14.0559 -0.236547 15.0833 0.398844 13.2053C1.03424 11.3273 3.20526 8.43129 4.5494 7.00385C5.89355 5.57642 7.3956 4.27525 8.49728 3.15484C9.59896 2.03442 10.815 1.44564 11.7538 0.838253C12.6926 0.230863 13.0184 0.104601 13.8254 0.00890685C14.6323 -0.0867869 14.3663 0.613638 14.8922 0.910023C14.8835 0.923313 14.8761 0.928631 14.8686 0.92996C14.886 0.948567 14.9134 0.985781 14.9544 1.05356C15.162 1.39381 15.5239 1.99322 15.4518 2.50492C15.3796 3.01661 15.1521 3.3037 14.7007 3.47249C14.5615 4.15696 14.462 4.38158 13.7421 4.36297C13.0221 4.34437 12.47 4.27392 11.6792 4.09583C10.8884 3.91773 10.7379 3.91906 10.0056 4.91454C9.27318 5.91002 7.95887 7.85978 7.48886 9.25399C7.01884 10.6495 6.64209 11.8643 5.80651 13.0233C6.14472 12.7641 6.37475 12.5687 6.70799 12.2577C6.97781 12.0065 7.29316 11.8152 7.52429 11.6416C7.63513 11.5418 7.92814 11.3648 7.92814 11.3648C8.08773 11.2667 8.15505 11.2436 8.28465 11.1772C9.63128 10.4874 10.6584 10.5618 11.949 11.3406C12.3233 10.9113 12.4713 10.4076 13.0047 10.1152C15.2379 8.89115 16.786 8.8845 18.3054 11.1413C19.5899 13.0525 18.8936 14.6142 17.8255 16.3313Z"></path>
  </symbol>
  <symbol xmlns="http://www.w3.org/2000/svg" fill="currentColor" viewBox="0 0 24 24" id="heart">
    <path d="M12 4.52765C9.64418 2.41689 6.02125 2.49347 3.75736 4.75736C1.41421 7.10051 1.41421 10.8995 3.75736 13.2426L10.5858 20.0711C11.3668 20.8521 12.6332 20.8521 13.4142 20.0711L20.2426 13.2426C22.5858 10.8995 22.5858 7.10051 20.2426 4.75736C17.9787 2.49347 14.3558 2.41689 12 4.52765ZM10.8284 6.17157L11.2929 6.63604C11.6834 7.02656 12.3166 7.02656 12.7071 6.63604L13.1716 6.17157C14.7337 4.60948 17.2663 4.60948 18.8284 6.17157C20.3905 7.73367 20.3905 10.2663 18.8284 11.8284L12 18.6569L5.17157 11.8284C3.60948 10.2663 3.60948 7.73367 5.17157 6.17157C6.73367 4.60948 9.26633 4.60948 10.8284 6.17157Z"></path>
  </symbol>
  <symbol xmlns="http://www.w3.org/2000/svg" fill="currentColor" viewBox="0 0 24 24" id="humb">
    <path d="M2 5C2 4.44772 2.44772 4 3 4H21C21.5523 4 22 4.44772 22 5V5C22 5.55228 21.5523 6 21 6H3C2.44772 6 2 5.55228 2 5V5Z"></path>
    <path d="M2 19C2 18.4477 2.44772 18 3 18H21C21.5523 18 22 18.4477 22 19V19C22 19.5523 21.5523 20 21 20H3C2.44772 20 2 19.5523 2 19V19Z"></path>
    <path d="M2 12C2 11.4477 2.44772 11 3 11H21C21.5523 11 22 11.4477 22 12V12C22 12.5523 21.5523 13 21 13H3C2.44772 13 2 12.5523 2 12V12Z"></path>
  </symbol>
  <symbol xmlns="http://www.w3.org/2000/svg" fill="currentColor" viewBox="0 0 24 24" id="info">
    <path d="M12 4C7.58172 4 4 7.58172 4 12C4 16.4183 7.58172 20 12 20C16.4183 20 20 16.4183 20 12C20 7.58172 16.4183 4 12 4ZM2 12C2 6.47715 6.47715 2 12 2C17.5228 2 22 6.47715 22 12C22 17.5228 17.5228 22 12 22C6.47715 22 2 17.5228 2 12Z"></path>
    <path d="M12 14C11.4477 14 11 13.5523 11 13V12C11 11.4477 11.4477 11 12 11C12.5523 11 13 11.4477 13 12V13C13 13.5523 12.5523 14 12 14Z"></path>
    <path d="M10.5 16.5C10.5 15.6716 11.1716 15 12 15C12.8284 15 13.5 15.6716 13.5 16.5C13.5 17.3284 12.8284 18 12 18C11.1716 18 10.5 17.3284 10.5 16.5Z"></path>
    <path d="M12.3899 7.81137C11.4329 7.7658 10.6304 8.3004 10.4864 9.1644C10.3956 9.70917 9.88037 10.0772 9.3356 9.9864C8.79083 9.8956 8.42281 9.38038 8.51361 8.83561C8.86961 6.69961 10.8171 5.73421 12.4851 5.81363C13.3395 5.85432 14.2176 6.16099 14.8937 6.79278C15.5866 7.44027 16 8.36777 16 9.5C16 10.7913 15.4919 11.7489 14.6172 12.3321C13.8141 12.8675 12.8295 13 12 13C11.4477 13 11 12.5523 11 12C11 11.4477 11.4477 11 12 11C12.6705 11 13.1859 10.8825 13.5078 10.668C13.7581 10.5011 14 10.2087 14 9.5C14 8.88224 13.7884 8.49723 13.5282 8.2541C13.2512 7.99526 12.848 7.83318 12.3899 7.81137Z"></path>
  </symbol>
  <symbol xmlns="http://www.w3.org/2000/svg" fill="currentColor" viewBox="0 0 48 48" id="info2">
    <path d="M24.0078 8C15.1713 8 8.00781 15.1634 8.00781 24C8.00781 32.8366 15.1713 40 24.0078 40C32.8444 40 40.0078 32.8366 40.0078 24C40.0078 15.1634 32.8444 8 24.0078 8ZM4.00781 24C4.00781 12.9543 12.9621 4 24.0078 4C35.0535 4 44.0078 12.9543 44.0078 24C44.0078 35.0457 35.0535 44 24.0078 44C12.9621 44 4.00781 35.0457 4.00781 24Z"></path>
    <path d="M24.0078 28C22.9032 28 22.0078 27.1046 22.0078 26L22.0078 14C22.0078 12.8954 22.9032 12 24.0078 12C25.1124 12 26.0078 12.8954 26.0078 14L26.0078 26C26.0078 27.1046 25.1124 28 24.0078 28Z"></path>
    <path d="M21.0078 33C21.0078 31.3431 22.351 30 24.0078 30C25.6647 30 27.0078 31.3431 27.0078 33C27.0078 34.6569 25.6647 36 24.0078 36C22.351 36 21.0078 34.6569 21.0078 33Z"></path>
  </symbol>
  <symbol xmlns="http://www.w3.org/2000/svg" fill="currentColor" viewBox="0 0 26 26" id="instruments">
    <path fill-rule="evenodd" clip-rule="evenodd" d="M4.58511 1C4.58511 0.723858 4.80896 0.5 5.08511 0.5H8.14894C8.42508 0.5 8.64894 0.723858 8.64894 1V1.52128H9.69149V1C9.69149 0.723858 9.91535 0.5 10.1915 0.5H24C24.8284 0.5 25.5 1.17157 25.5 2V2.62834C25.5 3.02616 25.342 3.4077 25.0607 3.689L23.5362 5.2135L24.7474 8.54444C25.2453 9.91363 25.5 11.3593 25.5 12.8162V13.2619C25.5 15.0109 25.133 16.7404 24.4226 18.3387L23.7268 19.9043H24C24.8284 19.9043 25.5 20.5758 25.5 21.4043V24C25.5 24.8284 24.8284 25.5 24 25.5H11.7021C10.8737 25.5 10.2021 24.8284 10.2021 24V21.4043C10.2021 20.5758 10.8737 19.9043 11.7021 19.9043H18.5781L19.9965 17.3512C20.5246 16.4006 20.8352 15.3469 20.9086 14.266H19.383C19.1746 14.266 18.988 14.1367 18.9148 13.9415L17.5046 10.1809H12.7447C12.6121 10.1809 12.4849 10.1282 12.3911 10.0344L9.98438 7.62766H8.64894V8.14894C8.64894 8.42508 8.42508 8.64894 8.14894 8.64894H5.08511C4.80896 8.64894 4.58511 8.42508 4.58511 8.14894V6.45288L0.824438 5.04263C0.629286 4.96945 0.5 4.78289 0.5 4.57447C0.5 4.36605 0.629286 4.17949 0.824438 4.1063L4.58511 2.69605V1ZM5.58511 7.64894H7.64894V1.5H5.58511V7.64894ZM4.58511 5.38488V3.76405L2.424 4.57447L4.58511 5.38488ZM8.64894 6.62766H9.69149V2.52128H8.64894V6.62766ZM10.6915 6.92055L12.9518 9.18085H20.9149C21.1043 9.18085 21.2774 9.28785 21.3621 9.45724L21.8727 10.4785C21.9075 10.5479 21.9255 10.6245 21.9255 10.7021V13.766C21.9255 15.1905 21.5625 16.5916 20.8707 17.8368L19.3094 20.6471C19.2212 20.8058 19.0539 20.9043 18.8723 20.9043H11.7021C11.426 20.9043 11.2021 21.1281 11.2021 21.4043V22.2021H24.5V21.4043C24.5 21.1281 24.2761 20.9043 24 20.9043H22.9574C22.7882 20.9043 22.6304 20.8186 22.5382 20.6767C22.446 20.5348 22.4318 20.3559 22.5005 20.2012L23.5088 17.9325C24.1623 16.4622 24.5 14.871 24.5 13.2619V12.8162C24.5 11.4759 24.2657 10.1458 23.8076 8.88618L22.4876 5.25598C22.4212 5.07341 22.4665 4.86892 22.6039 4.73155L24.3536 2.98189C24.4473 2.88812 24.5 2.76095 24.5 2.62834V2C24.5 1.72386 24.2761 1.5 24 1.5H10.6915V6.92055ZM24.5 23.2021H11.2021V24C11.2021 24.2761 11.426 24.5 11.7021 24.5H24C24.2761 24.5 24.5 24.2761 24.5 24V23.2021ZM18.5726 10.1809L19.7295 13.266H20.9255V10.8202L20.6059 10.1809H18.5726ZM13.266 4.06383C13.266 3.78769 13.4898 3.56383 13.766 3.56383H20.4043C20.6804 3.56383 20.9043 3.78769 20.9043 4.06383C20.9043 4.33997 20.6804 4.56383 20.4043 4.56383H13.766C13.4898 4.56383 13.266 4.33997 13.266 4.06383ZM13.266 6.61702C13.266 6.34088 13.4898 6.11702 13.766 6.11702H20.4043C20.6804 6.11702 20.9043 6.34088 20.9043 6.61702C20.9043 6.89316 20.6804 7.11702 20.4043 7.11702H13.766C13.4898 7.11702 13.266 6.89316 13.266 6.61702Z"></path>
  </symbol>
  <symbol xmlns="http://www.w3.org/2000/svg" fill="currentColor" viewBox="0 0 26 26" id="kitchen">
    <path fill-rule="evenodd" clip-rule="evenodd" d="M0.5 0.5H11.25V14.25H0.5V0.5ZM1.5 1.5V13.25H10.25V1.5H1.5ZM16.25 0.5H21V5.32461L24.5403 9.75H12.7097L16.25 5.32461V0.5ZM17.25 1.5V5.67539L14.7903 8.75H22.4597L20 5.67539V1.5H17.25ZM8.75 8.5V5.5H9.75V8.5H8.75ZM0.5 14.75H11.25V25.5H0.5V14.75ZM1.5 15.75V24.5H10.25V15.75H1.5ZM11.75 14.75H25.5V25.5H11.75V14.75ZM12.75 15.75V24.5H24.5V15.75H12.75ZM22.75 18H14.5V17H22.75V18ZM8.75 21.25V19H9.75V21.25H8.75Z"></path>
  </symbol>
  <symbol xmlns="http://www.w3.org/2000/svg" fill="currentColor" viewBox="0 0 26 26" id="legal">
    <path fill-rule="evenodd" clip-rule="evenodd" d="M7.54819 5C7.54819 2.51149 9.57847 0.5 12.0757 0.5H14.0895C16.5867 0.5 18.617 2.51149 18.617 5V7.69004L18.8121 7.78692C19.3084 8.03334 19.6239 8.53841 19.6239 9.09313C19.6239 10.4522 18.9833 11.7318 17.8947 12.5515L17.5552 12.8072L17.3522 13.3991C17.1595 13.9612 16.8611 14.4691 16.4819 14.9019L16.8896 15.0908L18.1474 15.4542C19.4989 15.8447 20.7684 16.4746 21.8948 17.3135C22.1938 17.5363 22.4527 17.808 22.6603 18.1172L23.2473 18.9919C24.0476 20.184 24.6356 21.5041 24.9856 22.8945L25.4849 24.8779C25.5225 25.0274 25.4891 25.1858 25.3944 25.3074C25.2996 25.4289 25.1541 25.5 25 25.5H1C0.845895 25.5 0.700396 25.4289 0.605653 25.3074C0.51091 25.1858 0.477511 25.0274 0.51513 24.8779L1.01442 22.8945C1.36439 21.5041 1.9524 20.184 2.75266 18.9919L3.33975 18.1172C3.54732 17.808 3.80621 17.5363 4.10525 17.3135C5.23157 16.4746 6.50109 15.8447 7.8526 15.4542L9.11044 15.0908L9.63617 14.8472C9.2794 14.4265 8.99764 13.9376 8.81298 13.3991L8.61001 12.8072L8.27047 12.5515C7.18189 11.7318 6.5413 10.4522 6.5413 9.09313C6.5413 8.53841 6.85685 8.03334 7.35309 7.78692L7.54819 7.69004V5ZM8.54819 7.19345L8.81087 7.06301C9.53729 6.70228 10.3138 6.4515 11.1148 6.31892C11.7662 6.21109 12.4244 6.15718 13.0826 6.15718C13.7408 6.15718 14.399 6.21109 15.0504 6.31892C15.8514 6.4515 16.6279 6.70228 17.3543 7.06301L17.617 7.19345V5C17.617 3.07023 16.0409 1.5 14.0895 1.5H12.0757C10.1243 1.5 8.54819 3.07023 8.54819 5V7.19345ZM10.4289 15.582L9.78595 15.8799V19.5H16.2141V15.8799L15.6712 15.6284C15.1252 16.0101 14.492 16.2735 13.8105 16.3863L13.3298 16.4659C13.1661 16.493 12.9991 16.493 12.8354 16.4659L12.3547 16.3863C11.6458 16.269 10.9894 15.9887 10.4289 15.582ZM17.2141 16.2254V19.5727C17.9285 19.7861 18.4518 20.445 18.4518 21.2293V24.5H24.3585L24.0158 23.1386C23.694 21.8601 23.1533 20.6459 22.4171 19.5492L21.83 18.6746C21.6858 18.4597 21.5057 18.2706 21.2974 18.1155C20.2675 17.3483 19.1063 16.7722 17.8698 16.4149L17.2141 16.2254ZM17.4518 24.5V21.2293C17.4518 20.8297 17.1248 20.5 16.7141 20.5H9.28595C8.87526 20.5 8.54819 20.8297 8.54819 21.2293V24.5H17.4518ZM7.54819 24.5V21.2293C7.54819 20.445 8.07153 19.7861 8.78595 19.5727V16.2254L8.13018 16.4149C6.8937 16.7722 5.73254 17.3483 4.70262 18.1155C4.49431 18.2707 4.31425 18.4597 4.17004 18.6746L3.58295 19.5492C2.84675 20.6459 2.30598 21.8601 1.98417 23.1386L1.64146 24.5H7.54819ZM13.0826 7.15718C12.479 7.15718 11.8755 7.20662 11.2781 7.3055C10.5748 7.42191 9.89315 7.64208 9.25563 7.95866L7.79785 8.68257C7.63934 8.76128 7.5413 8.92084 7.5413 9.09313C7.5413 10.1365 8.03303 11.1209 8.87202 11.7527L9.45649 12.1928L9.75892 13.0748C9.96833 13.6855 10.3386 14.2145 10.8175 14.6173C11.2943 15.0183 11.8784 15.2939 12.518 15.3997L12.9987 15.4793C13.0543 15.4885 13.1109 15.4885 13.1665 15.4793L13.6472 15.3997C14.9295 15.1875 15.9885 14.2933 16.4063 13.0748L16.7087 12.1928L17.2932 11.7527C18.1322 11.1209 18.6239 10.1365 18.6239 9.09313C18.6239 8.92083 18.5259 8.76128 18.3674 8.68257L16.9096 7.95866C16.2721 7.64208 15.5904 7.42191 14.8871 7.3055C14.2897 7.20662 13.6862 7.15718 13.0826 7.15718Z"></path>
  </symbol>
  <symbol xmlns="http://www.w3.org/2000/svg" fill="currentColor" viewBox="0 0 19 24" id="light">
    <path fill-rule="evenodd" clip-rule="evenodd" d="M4.32154 1.58317e-06L4.32254 0L14.6785 7.91587e-07C14.9873 0.000470203 15.2757 0.112232 15.5018 0.299816C15.726 0.48583 15.8774 0.735399 15.9494 1.00288L18.9508 12.1333C19.0032 12.3279 19.0138 12.5321 18.9824 12.7305C18.951 12.9289 18.8777 13.1216 18.7634 13.2926C18.649 13.4638 18.4944 13.6115 18.3063 13.7169C18.1174 13.8226 17.9026 13.8811 17.6799 13.8814L5.59229 13.8814V15.7945C5.59229 16.135 5.3058 16.4111 4.95239 16.4111C4.59898 16.4111 4.31249 16.135 4.31249 15.7945V13.8814L1.3201 13.8814C1.09743 13.8811 0.882595 13.8226 0.693723 13.7169C0.505581 13.6115 0.35105 13.4638 0.23664 13.2926C0.12235 13.1216 0.0490463 12.9289 0.0176502 12.7305C-0.0137485 12.5321 -0.0032475 12.3283 0.0490947 12.1337L3.05053 1.00325C3.12255 0.735779 3.27399 0.485832 3.49823 0.299816C3.72436 0.112231 4.0127 0.000470203 4.32154 1.58317e-06ZM4.28929 1.31301L1.28796 12.4431C1.2794 12.4749 1.27737 12.5102 1.28282 12.5446C1.28826 12.579 1.30015 12.6062 1.31262 12.6249C1.32128 12.6378 1.32893 12.6449 1.33328 12.6482H17.6668C17.6711 12.6449 17.6788 12.6378 17.6874 12.6249C17.6999 12.6062 17.7118 12.579 17.7172 12.5446C17.7227 12.5102 17.7206 12.4749 17.7121 12.4431L14.7107 1.31301C14.6987 1.26808 14.6776 1.24332 14.6668 1.2344L14.6653 1.2332H4.3347L4.3332 1.2344C4.32245 1.24332 4.30138 1.26808 4.28929 1.31301ZM9.50002 15.1779C9.85342 15.1779 10.1399 15.4539 10.1399 15.7945V22.7668H14.0476C14.401 22.7668 14.6875 23.0429 14.6875 23.3834C14.6875 23.7239 14.401 24 14.0476 24H4.95239C4.59898 24 4.31249 23.7239 4.31249 23.3834C4.31249 23.0429 4.59898 22.7668 4.95239 22.7668H8.86012V15.7945C8.86012 15.4539 9.14661 15.1779 9.50002 15.1779Z"></path>
  </symbol>
  <symbol xmlns="http://www.w3.org/2000/svg" fill="currentColor" viewBox="0 0 16 16" id="marker">
    <path d="M8.00033 1.33337C5.06699 1.33337 2.66699 3.73337 2.66699 6.66671C2.66699 10.2667 7.33366 14.3334 7.53366 14.5334C7.66699 14.6 7.86699 14.6667 8.00033 14.6667C8.13366 14.6667 8.33366 14.6 8.46699 14.5334C8.66699 14.3334 13.3337 10.2667 13.3337 6.66671C13.3337 3.73337 10.9337 1.33337 8.00033 1.33337ZM8.00033 13.1334C6.60033 11.8 4.00033 8.93337 4.00033 6.66671C4.00033 4.46671 5.80033 2.66671 8.00033 2.66671C10.2003 2.66671 12.0003 4.46671 12.0003 6.66671C12.0003 8.86671 9.40033 11.8 8.00033 13.1334ZM8.00033 4.00004C6.53366 4.00004 5.33366 5.20004 5.33366 6.66671C5.33366 8.13337 6.53366 9.33337 8.00033 9.33337C9.46699 9.33337 10.667 8.13337 10.667 6.66671C10.667 5.20004 9.46699 4.00004 8.00033 4.00004ZM8.00033 8.00004C7.26699 8.00004 6.66699 7.40004 6.66699 6.66671C6.66699 5.93337 7.26699 5.33337 8.00033 5.33337C8.73366 5.33337 9.33366 5.93337 9.33366 6.66671C9.33366 7.40004 8.73366 8.00004 8.00033 8.00004Z"></path>
  </symbol>
  <symbol xmlns="http://www.w3.org/2000/svg" fill="currentColor" viewBox="0 0 24 24" id="nav">
    <path d="M2 5C2 4.44772 2.44772 4 3 4H21C21.5523 4 22 4.44772 22 5V5C22 5.55228 21.5523 6 21 6H3C2.44772 6 2 5.55228 2 5V5Z"></path>
    <path d="M2 19C2 18.4477 2.44772 18 3 18H21C21.5523 18 22 18.4477 22 19V19C22 19.5523 21.5523 20 21 20H3C2.44772 20 2 19.5523 2 19V19Z"></path>
    <path d="M2 12C2 11.4477 2.44772 11 3 11H21C21.5523 11 22 11.4477 22 12V12C22 12.5523 21.5523 13 21 13H3C2.44772 13 2 12.5523 2 12V12Z"></path>
  </symbol>
  <symbol xmlns="http://www.w3.org/2000/svg" fill="currentColor" viewBox="0 0 24 24" id="note-check">
    <path d="M8 3C8 2.44772 8.44772 2 9 2H15C15.5523 2 16 2.44772 16 3H18C19.1046 3 20 3.89543 20 5V20C20 21.1046 19.1046 22 18 22H6C4.89543 22 4 21.1046 4 20V5C4 3.89543 4.89543 3 6 3H8ZM8 5H6V20H18V5H16V6C16 6.55229 15.5523 7 15 7H9C8.44772 7 8 6.55229 8 6V5ZM14 4H10V5H14V4ZM15.7071 10.7929C16.0976 11.1834 16.0976 11.8166 15.7071 12.2071L11.7071 16.2071C11.3166 16.5976 10.6834 16.5976 10.2929 16.2071L8.29289 14.2071C7.90237 13.8166 7.90237 13.1834 8.29289 12.7929C8.68342 12.4024 9.31658 12.4024 9.70711 12.7929L11 14.0858L14.2929 10.7929C14.6834 10.4024 15.3166 10.4024 15.7071 10.7929Z"></path>
  </symbol>
  <symbol xmlns="http://www.w3.org/2000/svg" fill="currentColor" viewBox="0 0 24 24" id="phone">
    <path d="M3.82831 3.99805H8.31825L9.76546 7.61608L7.44058 9.166C7.16238 9.35146 6.99528 9.66369 6.99528 9.99805C6.99782 10.0917 6.99528 9.99905 6.99528 9.99905L6.99528 10.0001L6.99529 10.0023L6.99532 10.0074L6.99547 10.0197C6.99562 10.0289 6.99587 10.0401 6.99629 10.0532C6.99714 10.0795 6.99867 10.1133 7.0014 10.1544C7.00688 10.2365 7.01719 10.3475 7.03658 10.4832C7.07534 10.7545 7.15056 11.1262 7.2966 11.5643C7.58983 12.444 8.16601 13.583 9.28818 14.7052C10.4103 15.8273 11.5493 16.4035 12.4291 16.6967C12.8672 16.8428 13.2388 16.918 13.5101 16.9567C13.6458 16.9761 13.7568 16.9865 13.8389 16.9919C13.88 16.9947 13.9139 16.9962 13.9401 16.997C13.9532 16.9975 13.9644 16.9977 13.9736 16.9979L13.9859 16.998L13.991 16.998L13.9932 16.998L13.9943 16.998C13.9943 16.998 14.1059 16.9919 13.9953 16.998C14.3741 16.998 14.7203 16.784 14.8897 16.4453L15.5594 15.1059L19.9953 15.8452V20.165C17.8842 20.4703 12.1827 20.7712 7.70239 16.2909C3.22209 11.8106 3.523 6.10914 3.82831 3.99805ZM9.06893 10.4841L10.8749 9.28018C11.6618 8.75556 11.9737 7.75142 11.6224 6.8733L10.1752 3.25527C9.87148 2.49595 9.13606 1.99805 8.31825 1.99805H3.77606C2.86755 1.99805 2.01237 2.62921 1.86322 3.61495C1.52391 5.85755 1.06207 12.479 6.28818 17.7052C11.5143 22.9313 18.1358 22.4694 20.3784 22.1301C21.3641 21.981 21.9953 21.1258 21.9953 20.2173V15.8452C21.9953 14.8675 21.2885 14.0331 20.3241 13.8724L15.8882 13.1331C15.0221 12.9887 14.1632 13.4261 13.7706 14.2114L13.4241 14.9044C13.3152 14.8777 13.1936 14.8434 13.0615 14.7994C12.4412 14.5926 11.5802 14.1688 10.7024 13.2909C9.82455 12.4131 9.40073 11.5521 9.19397 10.9318C9.13809 10.7642 9.09787 10.6135 9.06893 10.4841Z"></path>
  </symbol>
  <symbol xmlns="http://www.w3.org/2000/svg" fill="currentColor" viewBox="0 0 24 24" id="phone2">
    <path d="M6 5C6 3.89543 6.89543 3 8 3H16C17.1046 3 18 3.89543 18 5V19C18 20.1046 17.1046 21 16 21H8C6.89543 21 6 20.1046 6 19V5ZM16 5H8V19H16V5Z"></path>
    <path d="M13 17C13 17.5523 12.5523 18 12 18C11.4477 18 11 17.5523 11 17C11 16.4477 11.4477 16 12 16C12.5523 16 13 16.4477 13 17Z"></path>
  </symbol>
  <symbol xmlns="http://www.w3.org/2000/svg" fill="currentColor" viewBox="0 0 26 26" id="plumbing">
    <path fill-rule="evenodd" clip-rule="evenodd" d="M12.5 5.125C12.5 2.57068 14.5707 0.5 17.125 0.5C19.6793 0.5 21.75 2.57068 21.75 5.125V8.75H24.25V9.75H21.75V11H25.5V17.25H10.5V22.75C10.5 23.7165 11.2835 24.5 12.25 24.5C13.2165 24.5 14 23.7165 14 22.75V22.375C14 20.6491 15.3991 19.25 17.125 19.25H25V20.25H17.125C15.9514 20.25 15 21.2014 15 22.375V22.75C15 24.2688 13.7688 25.5 12.25 25.5C10.7312 25.5 9.5 24.2688 9.5 22.75V17.25H4.75C2.57195 17.25 0.776566 15.6116 0.529102 13.5H0.5V11H20.75V9.75H18.25V8.75H20.75V5.125C20.75 3.12297 19.127 1.5 17.125 1.5C15.123 1.5 13.5 3.12297 13.5 5.125V5.5H12.5V5.125ZM1.53822 13.5C1.77873 15.0575 3.12511 16.25 4.75 16.25H24.5V13.5H1.53822ZM24.5 12.5H1.5V12H24.5V12.5Z"></path>
  </symbol>
  <symbol xmlns="http://www.w3.org/2000/svg" fill="currentColor" viewBox="0 0 16 16" id="preloader">
    <path fill-rule="evenodd" clip-rule="evenodd" d="M7.99992 0.665527C8.36811 0.665527 8.66659 0.964004 8.66659 1.33219V3.99886C8.66659 4.36705 8.36811 4.66553 7.99992 4.66553C7.63173 4.66553 7.33325 4.36705 7.33325 3.99886V1.33219C7.33325 0.964004 7.63173 0.665527 7.99992 0.665527Z"></path>
    <path fill-rule="evenodd" clip-rule="evenodd" d="M7.99992 11.3335C8.36811 11.3335 8.66659 11.632 8.66659 12.0002V14.6668C8.66659 15.035 8.36811 15.3335 7.99992 15.3335C7.63173 15.3335 7.33325 15.035 7.33325 14.6668V12.0002C7.33325 11.632 7.63173 11.3335 7.99992 11.3335Z"></path>
    <path fill-rule="evenodd" clip-rule="evenodd" d="M2.81758 2.81391C3.07793 2.55356 3.50004 2.55356 3.76039 2.81391L5.64705 4.70058C5.9074 4.96093 5.9074 5.38304 5.64705 5.64339C5.3867 5.90374 4.96459 5.90374 4.70424 5.64339L2.81758 3.75672C2.55723 3.49637 2.55723 3.07426 2.81758 2.81391Z"></path>
    <path fill-rule="evenodd" clip-rule="evenodd" d="M10.3566 10.3569C10.617 10.0965 11.0391 10.0965 11.2994 10.3569L13.1861 12.2435C13.4465 12.5039 13.4465 12.926 13.1861 13.1864C12.9258 13.4467 12.5037 13.4467 12.2433 13.1864L10.3566 11.2997C10.0963 11.0393 10.0963 10.6172 10.3566 10.3569Z"></path>
    <path fill-rule="evenodd" clip-rule="evenodd" d="M0.669189 8.00016C0.669189 7.63197 0.967666 7.3335 1.33586 7.3335H4.00252C4.37071 7.3335 4.66919 7.63197 4.66919 8.00016C4.66919 8.36835 4.37071 8.66683 4.00252 8.66683H1.33586C0.967666 8.66683 0.669189 8.36835 0.669189 8.00016Z"></path>
    <path fill-rule="evenodd" clip-rule="evenodd" d="M11.3333 8.00016C11.3333 7.63197 11.6317 7.3335 11.9999 7.3335H14.6666C15.0348 7.3335 15.3333 7.63197 15.3333 8.00016C15.3333 8.36835 15.0348 8.66683 14.6666 8.66683H11.9999C11.6317 8.66683 11.3333 8.36835 11.3333 8.00016Z"></path>
    <path fill-rule="evenodd" clip-rule="evenodd" d="M5.64705 10.3569C5.9074 10.6172 5.9074 11.0393 5.64705 11.2997L3.76039 13.1864C3.50004 13.4467 3.07793 13.4467 2.81758 13.1864C2.55723 12.926 2.55723 12.5039 2.81758 12.2435L4.70424 10.3569C4.96459 10.0965 5.3867 10.0965 5.64705 10.3569Z"></path>
    <path fill-rule="evenodd" clip-rule="evenodd" d="M13.1861 2.81391C13.4465 3.07426 13.4465 3.49637 13.1861 3.75672L11.2994 5.64339C11.0391 5.90374 10.617 5.90374 10.3566 5.64339C10.0963 5.38304 10.0963 4.96093 10.3566 4.70058L12.2433 2.81391C12.5037 2.55356 12.9258 2.55356 13.1861 2.81391Z"></path>
  </symbol>
  <symbol xmlns="http://www.w3.org/2000/svg" fill="currentColor" viewBox="0 0 26 26" id="roof">
    <path fill-rule="evenodd" clip-rule="evenodd" d="M12.86 0.52C12.9514 0.493333 13.0486 0.493333 13.14 0.52L25.14 4.02C25.3533 4.08222 25.5 4.27778 25.5 4.5C25.5 4.72222 25.3533 4.91778 25.14 4.98L13.14 8.48C13.0486 8.50667 12.9514 8.50667 12.86 8.48L0.86 4.98C0.646667 4.91778 0.5 4.72222 0.5 4.5C0.5 4.27778 0.646667 4.08222 0.86 4.02L12.86 0.52ZM2.78571 4.5L13 7.47917L23.2143 4.5L13 1.52083L2.78571 4.5ZM1 8C1.27614 8 1.5 8.22386 1.5 8.5V20.8333L12.5 17.625V12C12.5 11.7239 12.7239 11.5 13 11.5C13.2761 11.5 13.5 11.7239 13.5 12V17.625L24.5 20.8333V8.5C24.5 8.22386 24.7239 8 25 8C25.2761 8 25.5 8.22386 25.5 8.5V21.5C25.5 21.7222 25.3533 21.9178 25.14 21.98L13.14 25.48C13.0486 25.5067 12.9514 25.5067 12.86 25.48L0.86 21.98C0.646667 21.9178 0.5 21.7222 0.5 21.5V8.5C0.5 8.22386 0.723858 8 1 8ZM23.2143 21.5L13 18.5208L2.78571 21.5L12.5 24.3333V21.5C12.5 21.2239 12.7239 21 13 21C13.2761 21 13.5 21.2239 13.5 21.5V24.3333L23.2143 21.5Z"></path>
  </symbol>
  <symbol xmlns="http://www.w3.org/2000/svg" fill="currentColor" viewBox="0 0 12 12" id="tg">
    <path d="M0.735699 5.85502C0.735699 5.85502 6.04301 3.65984 7.88367 2.88686C8.58929 2.57769 10.9822 1.58827 10.9822 1.58827C10.9822 1.58827 12.0866 1.15544 11.9945 2.20665C11.9639 2.63952 11.7184 4.1545 11.473 5.79319C11.1049 8.11209 10.7061 10.6474 10.7061 10.6474C10.7061 10.6474 10.6447 11.3585 10.1232 11.4822C9.60167 11.6059 8.74265 11.0494 8.58929 10.9256C8.46654 10.8329 6.28842 9.44157 5.4908 8.76136C5.27604 8.57586 5.03063 8.20486 5.52145 7.77198C6.62588 6.75167 7.94503 5.48402 8.74265 4.68015C9.11081 4.30911 9.47892 3.4434 7.94503 4.49461C5.7669 6.00963 3.61944 7.43188 3.61944 7.43188C3.61944 7.43188 3.12858 7.74104 2.20825 7.46277C1.28787 7.18454 0.214139 6.8135 0.214139 6.8135C0.214139 6.8135 -0.522091 6.34973 0.735699 5.85502V5.85502Z"></path>
  </symbol>
  <symbol xmlns="http://www.w3.org/2000/svg" fill="currentColor" viewBox="0 0 25 26" id="tile">
    <path fill-rule="evenodd" clip-rule="evenodd" d="M0 0.5H24V1.5H20.5V8.5H24.5V17.5H20.5V24.5H24V25.5H0V24.5H3.5V17.5H0V16.5H7.5V9.5H0V8.5H3.5V1.5H0V0.5ZM4.5 1.5V8.5H19.5V1.5H4.5ZM8.5 9.5V16.5H23.5V9.5H8.5ZM4.5 17.5V24.5H19.5V17.5H4.5Z"></path>
  </symbol>
  <symbol xmlns="http://www.w3.org/2000/svg" fill="currentColor" viewBox="0 0 26 26" id="vent">
    <path fill-rule="evenodd" clip-rule="evenodd" d="M6.96204 0.5H19.038C20.42 0.499991 21.5082 0.499983 22.3584 0.614294C23.2308 0.731583 23.9271 0.977402 24.4749 1.52513C25.0226 2.07285 25.2684 2.76917 25.3857 3.64156C25.5 4.49179 25.5 5.58 25.5 6.96202V7.03798C25.5 8.42 25.5 9.50821 25.3857 10.3584C25.2684 11.2308 25.0226 11.9271 24.4749 12.4749C23.9271 13.0226 23.2308 13.2684 22.3584 13.3857C21.5082 13.5 20.42 13.5 19.0379 13.5H6.96205C5.58002 13.5 4.4918 13.5 3.64156 13.3857C2.76917 13.2684 2.07285 13.0226 1.52513 12.4749C0.977402 11.9271 0.731583 11.2308 0.614294 10.3584C0.499983 9.50821 0.499991 8.41999 0.5 7.03797V6.96204C0.499991 5.58001 0.499983 4.49179 0.614294 3.64156C0.731583 2.76917 0.977402 2.07285 1.52513 1.52513C2.07285 0.977402 2.76917 0.731583 3.64156 0.614294C4.49179 0.499983 5.58001 0.499991 6.96204 0.5ZM3.77481 1.60538C3.01331 1.70776 2.56319 1.90128 2.23223 2.23223C1.90128 2.56319 1.70776 3.01331 1.60538 3.77481C1.50106 4.55069 1.5 5.57165 1.5 7C1.5 8.42835 1.50106 9.44931 1.60538 10.2252C1.70776 10.9867 1.90128 11.4368 2.23223 11.7678C2.56319 12.0987 3.01331 12.2922 3.77481 12.3946C4.55069 12.4989 5.57165 12.5 7 12.5H19C20.4283 12.5 21.4493 12.4989 22.2252 12.3946C22.9867 12.2922 23.4368 12.0987 23.7678 11.7678C24.0987 11.4368 24.2922 10.9867 24.3946 10.2252C24.4989 9.44931 24.5 8.42835 24.5 7C24.5 5.57165 24.4989 4.55069 24.3946 3.77481C24.2922 3.01331 24.0987 2.56319 23.7678 2.23223C23.4368 1.90128 22.9867 1.70776 22.2252 1.60538C21.4493 1.50106 20.4283 1.5 19 1.5H7C5.57165 1.5 4.55069 1.50106 3.77481 1.60538ZM22.75 11.25H3.25V10.25H22.75V11.25ZM6.5 19V15.25H7.5V19C7.5 22.5899 4.58985 25.5 1 25.5V24.5C4.03757 24.5 6.5 22.0376 6.5 19ZM12.5 25V15.25H13.5V25H12.5ZM18.5 19V15.25H19.5V19C19.5 22.0376 21.9624 24.5 25 24.5V25.5C21.4101 25.5 18.5 22.5899 18.5 19Z"></path>
  </symbol>
  <symbol xmlns="http://www.w3.org/2000/svg" fill="currentColor" viewBox="0 0 26 26" id="walls">
    <path fill-rule="evenodd" clip-rule="evenodd" d="M3.56675 2.61879C2.17219 3.31607 1.5 4.18684 1.5 5C1.5 5.617 1.88005 6.26412 2.69487 6.8574C3.50427 7.44674 4.68132 7.93221 6.09919 8.21918C6.99169 8.39982 7.97108 8.5 9 8.5C10.8377 8.5 12.5118 8.18052 13.814 7.65858C14.6854 7.30929 15.3699 6.87764 15.829 6.40988C16.2859 5.94445 16.5 5.46623 16.5 5C16.5 4.18684 15.8278 3.31607 14.4332 2.61879C13.0686 1.93646 11.1483 1.5 9 1.5C6.85165 1.5 4.93141 1.93646 3.56675 2.61879ZM16.5 2.84741C16.0613 2.41307 15.5038 2.03604 14.8805 1.72436C13.3497 0.958972 11.2699 0.5 9 0.5C6.73007 0.5 4.65031 0.958972 3.11954 1.72436C1.61867 2.47479 0.5 3.60402 0.5 5V21C0.5 22.396 1.61867 23.5252 3.11954 24.2756C4.65031 25.041 6.73007 25.5 9 25.5C11.2699 25.5 13.3497 25.041 14.8805 24.2756C16.3813 23.5252 17.5 22.396 17.5 21V13.8831L18.9863 14.7749L18.5957 22.9785C18.5303 24.3512 19.6257 25.5 21 25.5C22.3743 25.5 23.4697 24.3512 23.4043 22.9785L23.0137 14.7749L25.5 13.2831V0.5H16.5V2.84741ZM16.5 7.15328C15.9857 7.66332 15.2997 8.10094 14.5 8.45457V17.5C14.5 18.6046 13.6046 19.5 12.5 19.5C11.3954 19.5 10.5 18.6046 10.5 17.5V13.5C10.5 13.2239 10.2761 13 10 13C9.72386 13 9.5 13.2239 9.5 13.5C9.5 14.6046 8.60457 15.5 7.5 15.5C6.39543 15.5 5.5 14.6046 5.5 13.5V9.11193C4.15353 8.79695 2.9784 8.30083 2.10626 7.66582C1.8869 7.5061 1.68336 7.33484 1.5 7.15285V18C1.5 18.8132 2.17219 19.6839 3.56675 20.3812C4.93141 21.0635 6.85165 21.5 9 21.5C11.1483 21.5 13.0686 21.0635 14.4332 20.3812C15.8278 19.6839 16.5 18.8132 16.5 18V7.15328ZM16.5 20.1526C16.0613 20.5869 15.5038 20.964 14.8805 21.2756C13.3497 22.041 11.2699 22.5 9 22.5C6.73007 22.5 4.65031 22.041 3.11954 21.2756C2.49617 20.964 1.93874 20.5869 1.5 20.1526V21C1.5 21.8132 2.17219 22.6839 3.56675 23.3812C4.93141 24.0635 6.85165 24.5 9 24.5C11.1483 24.5 13.0686 24.0635 14.4332 23.3812C15.8278 22.6839 16.5 21.8132 16.5 21V20.1526ZM6.5 9.30729V13.5C6.5 14.0523 6.94772 14.5 7.5 14.5C8.05228 14.5 8.5 14.0523 8.5 13.5C8.5 12.6716 9.17157 12 10 12C10.8284 12 11.5 12.6716 11.5 13.5V17.5C11.5 18.0523 11.9477 18.5 12.5 18.5C13.0523 18.5 13.5 18.0523 13.5 17.5V8.83454C12.1928 9.25825 10.6477 9.5 9 9.5C8.13047 9.5 7.29065 9.43269 6.5 9.30729ZM17.5 7V12.7169L20.0137 14.2251L19.5946 23.026C19.5564 23.8285 20.1966 24.5 21 24.5C21.8034 24.5 22.4436 23.8285 22.4054 23.026L21.9863 14.2251L24.5 12.7169V7H17.5ZM24.5 6V1.5H23.5V6H24.5ZM22.5 6V1.5H21.5V6H22.5ZM20.5 6V1.5H19.5V6H20.5ZM18.5 6V1.5H17.5V6H18.5Z"></path>
  </symbol>
  <symbol xmlns="http://www.w3.org/2000/svg" fill="currentColor" viewBox="0 0 26 26" id="window">
    <path fill-rule="evenodd" clip-rule="evenodd" d="M0.5 0.5H25.5V25.5H0.5V0.5ZM1.5 1.5V24.5H12.5V1.5H1.5ZM13.5 1.5V24.5H24.5V1.5H13.5ZM2 2H12V24H2V2ZM3 3V23H11V3H3ZM14 2H24V24H14V2ZM15 3V8H23V3H15ZM23 9H15V23H23V9Z"></path>
  </symbol>
  <symbol xmlns="http://www.w3.org/2000/svg" fill="currentColor" viewBox="0 0 12 12" id="wp">
    <path fill-rule="evenodd" clip-rule="evenodd" d="M5.44133 0.533523C2.86002 0.852507 0.831293 2.92288 0.564153 5.51087C0.524567 5.89443 0.548543 6.62066 0.612926 6.98723C0.714832 7.56766 0.883465 8.07831 1.14557 8.60012L1.27726 8.86239L0.884848 10.2956C0.669012 11.0839 0.495879 11.7314 0.500075 11.7345C0.504293 11.7376 1.16164 11.5674 1.96086 11.3563C3.12435 11.0489 3.42566 10.9768 3.47258 10.9947C3.50481 11.007 3.65774 11.0744 3.81243 11.1446C4.31483 11.3724 4.84243 11.5235 5.3976 11.5985C5.78343 11.6507 6.46056 11.6504 6.83586 11.5979C8.06776 11.4254 9.16839 10.8807 10.0359 10.0141C10.4895 9.56099 10.7911 9.1465 11.0783 8.58175C11.3369 8.07313 11.5194 7.5187 11.6214 6.93163C11.681 6.58851 11.6809 5.58027 11.6212 5.22069C11.5204 4.61322 11.3648 4.12787 11.099 3.59179C10.3425 2.06622 8.94552 0.978718 7.27518 0.615109C6.75449 0.501765 5.97796 0.467218 5.44133 0.533523ZM6.90618 1.50355C7.5785 1.62789 8.13601 1.85249 8.68743 2.22114C9.62882 2.85053 10.3218 3.82787 10.5957 4.91247C10.7969 5.70897 10.7811 6.61363 10.5526 7.37952C10.1832 8.61787 9.30275 9.66025 8.15061 10.2233C7.48077 10.5506 6.86097 10.6934 6.1093 10.6934C5.24779 10.6934 4.48407 10.4843 3.70464 10.0351L3.57339 9.95948L2.71082 10.1861C2.23639 10.3108 1.84464 10.4091 1.84023 10.4047C1.83582 10.4004 1.93316 10.0291 2.05654 9.57981C2.17989 9.13049 2.28172 8.74635 2.28282 8.72617C2.28393 8.70597 2.22327 8.58925 2.14804 8.46679C1.04268 6.6678 1.33239 4.29534 2.84064 2.79491C3.5909 2.04855 4.54072 1.58987 5.60539 1.4598C5.89295 1.42466 6.60997 1.44878 6.90618 1.50355ZM3.92134 3.54857C3.7858 3.61567 3.53814 3.90817 3.43459 4.12344C3.2312 4.5463 3.23535 5.07934 3.44586 5.57291C3.70457 6.17943 4.38144 7.04064 5.04964 7.61336C5.51802 8.0148 5.90936 8.25004 6.4843 8.47567C7.07162 8.70618 7.18429 8.73273 7.57415 8.73257C7.88078 8.73245 7.92943 8.72662 8.072 8.6729C8.30643 8.58459 8.48139 8.47333 8.65569 8.30174C8.79093 8.16859 8.81816 8.12695 8.86243 7.98534C8.91765 7.80878 8.9492 7.52465 8.92452 7.42628C8.91161 7.37486 8.8454 7.33312 8.51242 7.16641C7.90234 6.86094 7.65643 6.75585 7.55193 6.75585C7.46631 6.75585 7.45171 6.76635 7.34818 6.90234C7.11154 7.21319 6.89439 7.45391 6.83781 7.46812C6.77005 7.48511 6.6369 7.43636 6.32938 7.28191C5.83147 7.03185 5.42525 6.69747 5.07601 6.25019C4.88593 6.00676 4.71477 5.72936 4.71477 5.66474C4.71477 5.63706 4.8029 5.49946 4.91061 5.35898C5.12172 5.08361 5.18352 4.98086 5.18352 4.90523C5.18352 4.87869 5.13775 4.74897 5.0818 4.61697C5.02586 4.48494 4.91303 4.21347 4.83107 4.01366C4.72947 3.76602 4.65814 3.62612 4.607 3.57421L4.53196 3.49804L4.27766 3.49806C4.0645 3.49806 4.00686 3.50624 3.92134 3.54857Z"></path>
  </symbol>
</svg>


